<svg width="47" height="47" viewBox="0 0 47 47" fill="none" xmlns="http://www.w3.org/2000/svg">
<path d="M43.1875 0.75H3.8125C2.11982 0.75 0.75 2.11982 0.75 3.8125V43.1875C0.75 44.8802 2.11982 46.25 3.8125 46.25H43.1875C44.8802 46.25 46.25 44.8802 46.25 43.1875V3.8125C46.25 2.11982 44.8802 0.75 43.1875 0.75ZM37.3125 2.65625V22.5469H9.6875V2.65625H37.3125ZM2.65625 3.8125C2.65625 3.17432 3.17432 2.65625 3.8125 2.65625H7.78125V8.48438H2.65625V3.8125ZM2.65625 10.3906H7.78125V15.5156H2.65625V10.3906ZM2.65625 17.4219H7.78125V22.5469H2.65625V17.4219ZM2.65625 24.4531H7.78125V29.5781H2.65625V24.4531ZM2.65625 31.4844H7.78125V36.6094H2.65625V31.4844ZM3.8125 44.3438C3.17432 44.3438 2.65625 43.8257 2.65625 43.1875V38.5156H7.78125V44.3438H3.8125ZM9.6875 44.3438V24.4531H37.3125V44.3438H9.6875ZM44.3438 43.1875C44.3438 43.8257 43.8257 44.3438 43.1875 44.3438H39.2188V38.5156H44.3438V43.1875ZM44.3438 36.6094H39.2188V31.4844H44.3438V36.6094ZM44.3438 29.5781H39.2188V24.4531H44.3438V29.5781ZM44.3438 22.5469H39.2188V17.4219H44.3438V22.5469ZM44.3438 15.5156H39.2188V10.3906H44.3438V15.5156ZM44.3438 8.48438H39.2188V2.65625H43.1875C43.8257 2.65625 44.3438 3.17432 44.3438 3.8125V8.48438Z" fill="white" stroke="white" stroke-width="0.5"/>
</svg>
