<svg width="16" height="16" viewBox="0 0 16 16" fill="none" xmlns="http://www.w3.org/2000/svg">
<path fill-rule="evenodd" clip-rule="evenodd" d="M0.0223151 2.19974C-0.161107 0.976886 0.812802 0 1.96641 0H4.78337C5.01796 0 5.22799 0.14642 5.31057 0.367534L6.40361 3.2942C6.43979 3.39107 6.44895 3.49607 6.43012 3.59781L5.88242 6.55629C6.5556 8.15052 7.66754 9.2218 9.51177 10.1828L12.4143 9.61642C12.5174 9.59631 12.624 9.6056 12.7221 9.64324L15.6373 10.7619C15.8557 10.8457 16 11.0566 16 11.2919V14.0026C16 15.2319 14.9244 16.2295 13.6663 15.9538C11.373 15.4513 7.12436 14.1741 4.14888 11.1778L4.48078 10.8436L4.14888 11.1778C1.29871 8.30768 0.343776 4.34287 0.0223152 2.19974L0.579252 2.11503L0.0223151 2.19974ZM1.96641 1.1344C1.42641 1.1344 1.06667 1.56685 1.13619 2.03032C1.44619 4.09704 2.35312 7.76519 4.94544 10.3757L4.54716 10.7768L4.94544 10.3757C7.68541 13.1348 11.6686 14.3552 13.9058 14.8453L13.9058 14.8454C14.3972 14.953 14.8735 14.5763 14.8735 14.0026V11.6828L12.471 10.7609L9.53585 11.3336C9.41373 11.3574 9.28721 11.3399 9.17603 11.2837C7.00245 10.1851 5.59134 8.8826 4.7752 6.82796C4.73555 6.72815 4.72489 6.61904 4.74445 6.51336L5.2939 3.54544L4.39343 1.1344H1.96641Z" fill="#888888"/>
</svg>
