<svg width="29" height="29" viewBox="0 0 29 29" fill="none" xmlns="http://www.w3.org/2000/svg">
<path d="M28.2443 24.6824C29.246 25.6842 29.246 27.2425 28.2443 28.2443C27.7434 28.7452 27.1312 28.9678 26.4634 28.9678C25.7955 28.9678 25.1833 28.7452 24.6824 28.2443L14.4978 18.0596L4.31317 28.2443C3.81228 28.7452 3.20009 28.9678 2.53225 28.9678C1.8644 28.9678 1.25221 28.7452 0.751326 28.2443C-0.250442 27.2425 -0.250442 25.6842 0.751326 24.6824L10.936 14.4978L0.751326 4.31317C-0.250442 3.3114 -0.250442 1.75309 0.751326 0.751326C1.75309 -0.250442 3.3114 -0.250442 4.31317 0.751326L14.4978 10.936L24.6824 0.751326C25.6842 -0.250442 27.2425 -0.250442 28.2443 0.751326C29.246 1.75309 29.246 3.3114 28.2443 4.31317L18.0596 14.4978L28.2443 24.6824Z" fill="black"/>
</svg>
