<svg width="34" height="53" viewBox="0 0 34 53" fill="none" xmlns="http://www.w3.org/2000/svg">
<path d="M4.67812 13.7385H29.1319L17.0113 29.0785L4.67812 13.7385ZM30.6204 0.478516C30.1951 0.478516 29.9825 0.738516 29.5572 0.998516L22.1147 10.3585H1.27585C0.425283 10.3585 0 11.3985 0 12.1785C0 12.4385 0.212642 12.9585 0.425283 13.2185L15.5228 32.4585V49.0985H12.5459C11.6953 49.0985 11.0574 49.8785 11.27 50.9185C11.4827 51.9585 11.9079 52.4785 12.7585 52.4785H21.2642C22.1147 52.4785 22.7527 51.6985 22.7527 50.6585C22.7527 49.6185 22.1147 48.8385 21.2642 48.8385H18.4998V32.1985L33.5974 12.9585C34.2353 12.1785 34.0227 11.1385 33.5974 10.6185C33.3847 10.3585 32.9595 10.0985 32.5342 10.0985H26.1549L31.6836 3.07852C32.3215 2.29852 32.3215 1.25852 31.6836 0.738516C31.471 0.738516 31.0457 0.478516 30.6204 0.478516Z" fill="white"/>
</svg>
