<svg width="286" height="203" viewBox="0 0 286 203" fill="none" xmlns="http://www.w3.org/2000/svg">
<path d="M10.7812 107.141C7.4375 107.141 5.76562 106.266 5.76562 104.516V51.1719C5.76562 50.2656 6.17188 49.5938 6.98438 49.1562C7.79688 48.6875 9.0625 48.4531 10.7812 48.4531H13.6875C15.4062 48.4531 16.6719 48.6875 17.4844 49.1562C18.2969 49.5938 18.7031 50.2656 18.7031 51.1719V73.4844L19.0312 73.5781L33.5156 50.0469C34.1406 48.9844 35.7969 48.4531 38.4844 48.4531H42.4219C43.9531 48.4531 45.1094 48.5781 45.8906 48.8281C46.7031 49.0469 47.1094 49.3438 47.1094 49.7188C47.1094 50.2188 46.875 50.8125 46.4062 51.5L30.3281 76.1562L48.6094 104.141C49.0469 104.828 49.2656 105.406 49.2656 105.875C49.2656 106.719 47.7188 107.141 44.625 107.141H39.75C38.4062 107.141 37.3125 107.031 36.4688 106.812C35.625 106.594 35.0312 106.172 34.6875 105.547L19.0312 80.2344L18.7031 80.2812V104.516C18.7031 106.266 17.0312 107.141 13.6875 107.141H10.7812ZM57.0938 107C55.9375 107 55.0938 106.734 54.5625 106.203C54.0312 105.672 53.7656 104.828 53.7656 103.672V51.9688C53.7656 50.8125 54.0312 49.9844 54.5625 49.4844C55.0938 48.9531 55.9375 48.6875 57.0938 48.6875H87.6094C88.4844 48.6875 89.1094 49.0156 89.4844 49.6719C89.8906 50.3281 90.0938 51.3906 90.0938 52.8594V55.3906C90.0938 56.8594 89.8906 57.9219 89.4844 58.5781C89.1094 59.2344 88.4844 59.5625 87.6094 59.5625H66.6094V71.6562H85.3594C86.2344 71.6562 86.8594 71.9844 87.2344 72.6406C87.6406 73.2969 87.8438 74.3594 87.8438 75.8281V78.4062C87.8438 79.875 87.6406 80.9375 87.2344 81.5938C86.8594 82.25 86.2344 82.5781 85.3594 82.5781H66.6094V96.0781H87.6562C88.5312 96.0781 89.1562 96.4062 89.5312 97.0625C89.9375 97.7188 90.1406 98.7656 90.1406 100.203V102.828C90.1406 104.297 89.9375 105.359 89.5312 106.016C89.1562 106.672 88.5312 107 87.6562 107H57.0938ZM104.344 107.141C101 107.141 99.3281 106.266 99.3281 104.516V51.1719C99.3281 50.2656 99.7344 49.5938 100.547 49.1562C101.359 48.6875 102.625 48.4531 104.344 48.4531H107.906C109.25 48.4531 110.359 48.6094 111.234 48.9219C112.109 49.2344 112.828 49.8438 113.391 50.75L133.078 81.0781L135.328 84.4531V51.1719C135.328 50.2656 135.734 49.5938 136.547 49.1562C137.359 48.6875 138.625 48.4531 140.344 48.4531H142.734C144.453 48.4531 145.703 48.6875 146.484 49.1562C147.297 49.5938 147.703 50.2656 147.703 51.1719V104.516C147.703 106.266 146.047 107.141 142.734 107.141H139.547C138.172 107.141 137.062 107 136.219 106.719C135.375 106.406 134.672 105.812 134.109 104.938L113.484 73.3906L111.703 70.7656V104.516C111.703 106.266 110.047 107.141 106.734 107.141H104.344ZM164.25 107.141C160.906 107.141 159.234 106.266 159.234 104.516V51.1719C159.234 50.2656 159.641 49.5938 160.453 49.1562C161.266 48.6875 162.531 48.4531 164.25 48.4531H167.812C169.156 48.4531 170.266 48.6094 171.141 48.9219C172.016 49.2344 172.734 49.8438 173.297 50.75L192.984 81.0781L195.234 84.4531V51.1719C195.234 50.2656 195.641 49.5938 196.453 49.1562C197.266 48.6875 198.531 48.4531 200.25 48.4531H202.641C204.359 48.4531 205.609 48.6875 206.391 49.1562C207.203 49.5938 207.609 50.2656 207.609 51.1719V104.516C207.609 106.266 205.953 107.141 202.641 107.141H199.453C198.078 107.141 196.969 107 196.125 106.719C195.281 106.406 194.578 105.812 194.016 104.938L173.391 73.3906L171.609 70.7656V104.516C171.609 106.266 169.953 107.141 166.641 107.141H164.25ZM235.312 107.141C231.969 107.141 230.297 106.266 230.297 104.516V79.0156L213.703 52.2031C213.172 51.2969 212.906 50.6094 212.906 50.1406C212.906 49.6094 213.344 49.2031 214.219 48.9219C215.125 48.6094 216.469 48.4531 218.25 48.4531H221.766C223.109 48.4531 224.188 48.5781 225 48.8281C225.844 49.0469 226.438 49.4531 226.781 50.0469L236.953 67.9062L247.219 50.0469C247.562 49.4531 248.156 49.0469 249 48.8281C249.844 48.5781 250.922 48.4531 252.234 48.4531H255.188C256.969 48.4531 258.297 48.6094 259.172 48.9219C260.047 49.2031 260.484 49.6094 260.484 50.1406C260.484 50.7656 260.219 51.4531 259.688 52.2031L243.141 79.25V104.516C243.141 106.266 241.484 107.141 238.172 107.141H235.312Z" fill="white"/>
<path d="M101.688 182C101.375 182 101.052 181.698 100.719 181.094C100.385 180.49 100.094 179.792 99.8438 179C99.6146 178.188 99.5 177.531 99.5 177.031C99.5 176.927 99.5312 176.75 99.5938 176.5L118.219 150.375H102.781C102.198 150.375 101.771 150.156 101.5 149.719C101.25 149.281 101.125 148.573 101.125 147.594V145.906C101.125 144.927 101.25 144.219 101.5 143.781C101.771 143.344 102.198 143.125 102.781 143.125H128.188C128.458 143.125 128.75 143.438 129.062 144.062C129.396 144.688 129.667 145.417 129.875 146.25C130.104 147.062 130.219 147.719 130.219 148.219C130.219 148.448 130.198 148.594 130.156 148.656L111.594 174.719H128.562C129.146 174.719 129.562 174.938 129.812 175.375C130.083 175.812 130.219 176.51 130.219 177.469V179.219C130.219 180.198 130.083 180.906 129.812 181.344C129.562 181.781 129.146 182 128.562 182H101.688ZM140.25 182.094C138.042 182.094 136.938 181.51 136.938 180.344V144.781C136.938 144.177 137.198 143.729 137.719 143.438C138.26 143.125 139.104 142.969 140.25 142.969H142.219C143.365 142.969 144.198 143.125 144.719 143.438C145.26 143.729 145.531 144.177 145.531 144.781V158.5H160.531V144.781C160.531 144.177 160.802 143.729 161.344 143.438C161.885 143.125 162.729 142.969 163.875 142.969H165.812C168.042 142.969 169.156 143.573 169.156 144.781V180.344C169.156 181.51 168.042 182.094 165.812 182.094H163.875C161.646 182.094 160.531 181.51 160.531 180.344V165.844H145.531V180.344C145.531 181.51 144.427 182.094 142.219 182.094H140.25ZM176.406 182.094C174.135 182.094 173 181.688 173 180.875C173 180.646 173.073 180.312 173.219 179.875L185.469 144.156C185.76 143.365 186.812 142.969 188.625 142.969H191.5C193.312 142.969 194.365 143.365 194.656 144.156L206.906 179.875C207.01 180.292 207.062 180.625 207.062 180.875C207.062 181.292 206.833 181.604 206.375 181.812C205.938 182 205.24 182.094 204.281 182.094H201.844C200.969 182.094 200.26 182.01 199.719 181.844C199.198 181.656 198.875 181.354 198.75 180.938L196.5 174.156H183.406L181.156 180.938C180.927 181.708 180.073 182.094 178.594 182.094H176.406ZM194.125 166.812L190.969 156.938C190.781 156.438 190.615 155.865 190.469 155.219C190.344 154.573 190.229 153.958 190.125 153.375H189.906L189.781 154.062C189.573 155.292 189.333 156.25 189.062 156.938L185.781 166.812H194.125ZM214.25 182.094C212.021 182.094 210.906 181.51 210.906 180.344V144.781C210.906 144.177 211.177 143.729 211.719 143.438C212.26 143.125 213.104 142.969 214.25 142.969H216.625C217.521 142.969 218.26 143.073 218.844 143.281C219.427 143.49 219.906 143.896 220.281 144.5L233.406 164.719L234.906 166.969V144.781C234.906 144.177 235.177 143.729 235.719 143.438C236.26 143.125 237.104 142.969 238.25 142.969H239.844C240.99 142.969 241.823 143.125 242.344 143.438C242.885 143.729 243.156 144.177 243.156 144.781V180.344C243.156 181.51 242.052 182.094 239.844 182.094H237.719C236.802 182.094 236.062 182 235.5 181.812C234.938 181.604 234.469 181.208 234.094 180.625L220.344 159.594L219.156 157.844V180.344C219.156 181.51 218.052 182.094 215.844 182.094H214.25ZM267.781 182.469C261.531 182.469 256.917 180.844 253.938 177.594C250.979 174.344 249.5 169.292 249.5 162.438C249.5 149.25 255.688 142.656 268.062 142.656C269.75 142.656 271.521 142.823 273.375 143.156C275.25 143.49 276.812 143.958 278.062 144.562C279.312 145.146 279.938 145.802 279.938 146.531C279.938 147.052 279.729 147.74 279.312 148.594C278.896 149.427 278.406 150.167 277.844 150.812C277.281 151.458 276.781 151.781 276.344 151.781C276.219 151.781 275.917 151.677 275.438 151.469C274.396 151.052 273.302 150.708 272.156 150.438C271.01 150.146 269.594 150 267.906 150C264.635 150 262.208 151.042 260.625 153.125C259.062 155.188 258.281 158.312 258.281 162.5C258.281 166.688 259.073 169.844 260.656 171.969C262.24 174.094 264.615 175.156 267.781 175.156C269.385 175.156 270.833 175.021 272.125 174.75V167.719H267.219C266.635 167.719 266.208 167.5 265.938 167.062C265.688 166.625 265.562 165.917 265.562 164.938V163.156C265.562 162.198 265.688 161.5 265.938 161.062C266.208 160.625 266.635 160.406 267.219 160.406H278.5C279.292 160.406 279.865 160.583 280.219 160.938C280.573 161.271 280.75 161.823 280.75 162.594V178.062C280.75 179.729 279.354 180.885 276.562 181.531C273.771 182.156 270.844 182.469 267.781 182.469Z" fill="white"/>
</svg>
