<svg width="115" height="111" viewBox="0 0 115 111" fill="none" xmlns="http://www.w3.org/2000/svg">
<rect width="115" height="111" rx="30" fill="#912525"/>
<circle cx="57.5" cy="38.5" r="12.5" fill="#FAFF00"/>
<ellipse cx="57" cy="71.5" rx="3" ry="25.5" fill="#00FF1A"/>
<ellipse cx="42.6405" cy="71.8482" rx="3" ry="21.3985" transform="rotate(-46.7448 42.6405 71.8482)" fill="#00FF1A"/>
<ellipse cx="71.3847" cy="65.9713" rx="3" ry="21.3985" transform="rotate(50.3219 71.3847 65.9713)" fill="#00FF1A"/>
<circle cx="70.25" cy="32.25" r="6.25" fill="#FF0000"/>
<circle cx="70.25" cy="44.25" r="6.25" fill="#FF0000"/>
<circle cx="59.25" cy="50.25" r="6.25" fill="#FF0000"/>
<circle cx="48.25" cy="48.25" r="6.25" fill="#FF0000"/>
<circle cx="42.25" cy="39.25" r="6.25" fill="#FF0000"/>
<circle cx="46.25" cy="29.25" r="6.25" fill="#FF0000"/>
<circle cx="55.25" cy="23.25" r="6.25" fill="#FF0000"/>
<circle cx="63.25" cy="25.25" r="6.25" fill="#FF0000"/>
<rect x="17" y="11" width="4" height="15" fill="#D9D9D9"/>
<rect x="32" y="11" width="4" height="15" transform="rotate(90 32 11)" fill="#D9D9D9"/>
<rect x="99" y="11" width="4" height="15" transform="rotate(90 99 11)" fill="#D9D9D9"/>
<rect x="99" y="26" width="4" height="15" transform="rotate(-180 99 26)" fill="#D9D9D9"/>
<rect x="99.0452" y="95.7487" width="4" height="15" transform="rotate(179.649 99.0452 95.7487)" fill="#D9D9D9"/>
<rect x="84.0454" y="95.8406" width="4" height="15" transform="rotate(-90.351 84.0454 95.8406)" fill="#D9D9D9"/>
<rect x="17.0466" y="96.2511" width="4" height="15" transform="rotate(-90.351 17.0466 96.2511)" fill="#D9D9D9"/>
<rect x="16.9547" y="81.2513" width="4" height="15" transform="rotate(-0.350999 16.9547 81.2513)" fill="#D9D9D9"/>
</svg>
