<svg width="55" height="151" viewBox="0 0 55 151" fill="none" xmlns="http://www.w3.org/2000/svg">
<g filter="url(#filter0_d_223_667)">
<rect x="6.00195" y="6" width="42.6724" height="43.4483" rx="10" fill="white"/>
</g>
<path d="M28.6809 11.3384C28.9726 11.0467 29.3683 10.8828 29.7809 10.8828C30.1934 10.8828 30.5891 11.0467 30.8809 11.3384L35.5485 16.006C35.8402 16.2978 36.0041 16.6934 36.0041 17.106C36.0041 17.5186 35.8402 17.9142 35.5485 18.206L30.8809 22.8737C30.5874 23.1571 30.1944 23.3139 29.7865 23.3103C29.3785 23.3068 28.9883 23.1432 28.6998 22.8547C28.4113 22.5662 28.2477 22.176 28.2442 21.768C28.2406 21.3601 28.3974 20.9671 28.6809 20.6736L30.6926 18.6619H28.225C22.7047 18.6619 18.1118 23.2548 18.1118 28.7751C18.1118 34.2954 22.7047 38.8883 28.225 38.8883C33.7453 38.8883 38.3382 34.2954 38.3382 28.7751C38.3382 28.3625 38.5021 27.9667 38.7939 27.6749C39.0857 27.3832 39.4814 27.2192 39.8941 27.2192C40.3067 27.2192 40.7025 27.3832 40.9943 27.6749C41.286 27.9667 41.45 28.3625 41.45 28.7751C41.45 36.0131 35.4629 42.0001 28.225 42.0001C20.987 42.0001 15 36.0131 15 28.7751C15 21.5372 20.987 15.5501 28.225 15.5501H30.6926L28.6809 13.5384C28.3892 13.2466 28.2253 12.8509 28.2253 12.4384C28.2253 12.0258 28.3892 11.6301 28.6809 11.3384Z" fill="#0D0D0D"/>
<g filter="url(#filter1_d_223_667)">
<rect x="6" y="56" width="43" height="87" rx="10" fill="white"/>
</g>
<path d="M39.7855 76.0067H29.1174V65.3386C29.1174 64.867 28.9301 64.4148 28.5966 64.0813C28.2632 63.7479 27.8109 63.5605 27.3394 63.5605C26.8678 63.5605 26.4156 63.7479 26.0821 64.0813C25.7487 64.4148 25.5614 64.867 25.5614 65.3386V76.0067H14.8933C14.4217 76.0067 13.9694 76.194 13.636 76.5274C13.3026 76.8609 13.1152 77.3131 13.1152 77.7847C13.1152 78.2562 13.3026 78.7085 13.636 79.0419C13.9694 79.3754 14.4217 79.5627 14.8933 79.5627H25.5614V90.2308C25.5614 90.7024 25.7487 91.1546 26.0821 91.4881C26.4156 91.8215 26.8678 92.0088 27.3394 92.0088C27.8109 92.0088 28.2632 91.8215 28.5966 91.4881C28.9301 91.1546 29.1174 90.7024 29.1174 90.2308V79.5627H39.7855C40.2571 79.5627 40.7093 79.3754 41.0427 79.0419C41.3762 78.7085 41.5635 78.2562 41.5635 77.7847C41.5635 77.3131 41.3762 76.8609 41.0427 76.5274C40.7093 76.194 40.2571 76.0067 39.7855 76.0067Z" fill="#231F20"/>
<path d="M40.555 123.114H15.6628C15.1912 123.114 14.739 122.926 14.4055 122.593C14.0721 122.259 13.8848 121.807 13.8848 121.336C13.8848 120.864 14.0721 120.412 14.4055 120.078C14.739 119.745 15.1912 119.558 15.6628 119.558H40.555C41.0266 119.558 41.4788 119.745 41.8123 120.078C42.1457 120.412 42.333 120.864 42.333 121.336C42.333 121.807 42.1457 122.259 41.8123 122.593C41.4788 122.926 41.0266 123.114 40.555 123.114Z" fill="#231F20"/>
<line x1="10" y1="101.5" x2="45" y2="101.5" stroke="#F0F0F0"/>
<defs>
<filter id="filter0_d_223_667" x="0.00195312" y="0" width="54.6719" height="55.4482" filterUnits="userSpaceOnUse" color-interpolation-filters="sRGB">
<feFlood flood-opacity="0" result="BackgroundImageFix"/>
<feColorMatrix in="SourceAlpha" type="matrix" values="0 0 0 0 0 0 0 0 0 0 0 0 0 0 0 0 0 0 127 0" result="hardAlpha"/>
<feMorphology radius="2" operator="dilate" in="SourceAlpha" result="effect1_dropShadow_223_667"/>
<feOffset/>
<feGaussianBlur stdDeviation="2"/>
<feComposite in2="hardAlpha" operator="out"/>
<feColorMatrix type="matrix" values="0 0 0 0 0 0 0 0 0 0 0 0 0 0 0 0 0 0 0.25 0"/>
<feBlend mode="normal" in2="BackgroundImageFix" result="effect1_dropShadow_223_667"/>
<feBlend mode="normal" in="SourceGraphic" in2="effect1_dropShadow_223_667" result="shape"/>
</filter>
<filter id="filter1_d_223_667" x="0" y="50" width="55" height="99" filterUnits="userSpaceOnUse" color-interpolation-filters="sRGB">
<feFlood flood-opacity="0" result="BackgroundImageFix"/>
<feColorMatrix in="SourceAlpha" type="matrix" values="0 0 0 0 0 0 0 0 0 0 0 0 0 0 0 0 0 0 127 0" result="hardAlpha"/>
<feMorphology radius="2" operator="dilate" in="SourceAlpha" result="effect1_dropShadow_223_667"/>
<feOffset/>
<feGaussianBlur stdDeviation="2"/>
<feComposite in2="hardAlpha" operator="out"/>
<feColorMatrix type="matrix" values="0 0 0 0 0 0 0 0 0 0 0 0 0 0 0 0 0 0 0.25 0"/>
<feBlend mode="normal" in2="BackgroundImageFix" result="effect1_dropShadow_223_667"/>
<feBlend mode="normal" in="SourceGraphic" in2="effect1_dropShadow_223_667" result="shape"/>
</filter>
</defs>
</svg>
