<svg width="172" height="172" viewBox="0 0 172 172" fill="none" xmlns="http://www.w3.org/2000/svg">
<rect width="172" height="172" rx="30" fill="black"/>
<path d="M28.1387 120.422C27.6191 120.607 27.1924 120.7 26.8584 120.7L25.6338 132.167L21.0693 132.612L18.4531 103.277C20.0488 102.758 22.1826 102.294 24.8545 101.886C27.5264 101.44 30.0869 101.218 32.5361 101.218C36.4326 101.218 39.5498 101.941 41.8877 103.389C42.4072 105.021 42.667 106.524 42.667 107.897C42.667 111.72 40.4775 114.893 36.0986 117.416L43.7246 131.944L40.5518 133.726L28.1387 120.422ZM33.8721 109.178C33.8721 107.025 32.9258 105.355 31.0332 104.168C30.291 104.168 29.4746 104.335 28.584 104.669L27.1924 117.806C29.3076 116.841 30.9404 115.561 32.0908 113.965C33.2783 112.369 33.8721 110.773 33.8721 109.178ZM70.5547 122.537C70.5547 124.393 70.3877 125.933 70.0537 127.157C69.7568 128.382 69.2188 129.477 68.4395 130.441C66.918 132.186 63.9678 133.058 59.5889 133.058C55.2471 133.095 51.8701 132.111 49.458 130.107C48.9385 127.547 48.6787 125.023 48.6787 122.537C48.6787 117.49 49.625 112.981 51.5176 109.011C53.4102 105.04 55.6182 102.201 58.1416 100.494C61.7041 101.941 64.6543 104.669 66.9922 108.677C69.3672 112.685 70.5547 117.305 70.5547 122.537ZM64.9883 120.533C64.9883 115.857 64.2275 111.85 62.7061 108.51C59.7744 111.219 57.4736 114.354 55.8037 117.917C54.1338 121.442 53.2988 124.912 53.2988 128.326C54.3379 128.549 55.8965 128.66 57.9746 128.66C60.0898 128.66 62.168 128.326 64.209 127.658C64.7285 125.283 64.9883 122.908 64.9883 120.533ZM97.3848 122.537C97.3848 124.393 97.2178 125.933 96.8838 127.157C96.5869 128.382 96.0488 129.477 95.2695 130.441C93.748 132.186 90.7979 133.058 86.4189 133.058C82.0771 133.095 78.7002 132.111 76.2881 130.107C75.7686 127.547 75.5088 125.023 75.5088 122.537C75.5088 117.49 76.4551 112.981 78.3477 109.011C80.2402 105.04 82.4482 102.201 84.9717 100.494C88.5342 101.941 91.4844 104.669 93.8223 108.677C96.1973 112.685 97.3848 117.305 97.3848 122.537ZM91.8184 120.533C91.8184 115.857 91.0576 111.85 89.5361 108.51C86.6045 111.219 84.3037 114.354 82.6338 117.917C80.9639 121.442 80.1289 124.912 80.1289 128.326C81.168 128.549 82.7266 128.66 84.8047 128.66C86.9199 128.66 88.998 128.326 91.0391 127.658C91.5586 125.283 91.8184 122.908 91.8184 120.533ZM101.448 102.275L124.716 101.663L124.604 104.725L118.203 105.393L115.364 132.167L110.41 132.612L108.072 106.395L101.727 107.007L101.448 102.275ZM127.61 111.905C127.61 107.638 129.893 103.686 134.457 100.049L142.807 105.615C139.021 107.99 137.129 110.514 137.129 113.186C137.129 114.299 137.5 115.486 138.242 116.748C139.021 117.973 139.801 119.197 140.58 120.422C141.359 121.646 141.749 122.797 141.749 123.873C141.749 128.252 138.706 131.647 132.62 134.06L130.449 131.109C131.934 130.293 132.954 129.514 133.511 128.771C134.104 127.992 134.401 127.139 134.401 126.211C134.401 125.283 134.049 124.263 133.344 123.149C132.639 121.999 131.859 120.96 131.006 120.032C130.152 119.067 129.373 117.861 128.668 116.414C127.963 114.93 127.61 113.427 127.61 111.905ZM150.767 131.443C149.95 130.59 149.542 129.588 149.542 128.438C149.542 127.287 149.95 126.304 150.767 125.487C151.62 124.634 152.622 124.207 153.772 124.207C154.96 124.207 155.962 124.634 156.778 125.487C157.595 126.304 158.003 127.287 158.003 128.438C158.003 129.588 157.595 130.59 156.778 131.443C155.962 132.26 154.96 132.668 153.772 132.668C152.622 132.668 151.62 132.26 150.767 131.443ZM158.448 100.884L159.729 102.721L155.721 121.257L151.657 121.702L150.21 102.275L158.448 100.884Z" fill="#820000"/>
<path d="M58.2898 49C58.2367 48.3371 57.9882 47.8201 57.544 47.4489C57.1065 47.0777 56.4403 46.892 55.5455 46.892C54.9754 46.892 54.508 46.9616 54.1435 47.1009C53.7855 47.2334 53.5204 47.4157 53.348 47.6477C53.1757 47.8797 53.0862 48.1449 53.0795 48.4432C53.0663 48.6884 53.1094 48.9105 53.2088 49.1094C53.3149 49.3016 53.4806 49.4773 53.706 49.6364C53.9313 49.7888 54.2197 49.928 54.571 50.054C54.9223 50.1799 55.34 50.2926 55.8239 50.392L57.4943 50.75C58.6212 50.9886 59.5857 51.3035 60.3878 51.6946C61.1899 52.0857 61.8461 52.5464 62.3565 53.0767C62.867 53.6004 63.2415 54.1903 63.4801 54.8466C63.7254 55.5028 63.8513 56.2187 63.858 56.9943C63.8513 58.3333 63.5166 59.4669 62.8537 60.3949C62.1908 61.3229 61.2429 62.0289 60.0099 62.5128C58.7836 62.9967 57.3087 63.2386 55.5852 63.2386C53.8153 63.2386 52.2708 62.9768 50.9517 62.4531C49.6392 61.9295 48.6184 61.1241 47.8892 60.0369C47.1667 58.9432 46.8021 57.5445 46.7955 55.8409H52.0455C52.0786 56.464 52.2344 56.9877 52.5128 57.4119C52.7912 57.8362 53.1823 58.1577 53.6861 58.3764C54.1965 58.5952 54.803 58.7045 55.5057 58.7045C56.0956 58.7045 56.5895 58.6316 56.9872 58.4858C57.3849 58.34 57.6866 58.1378 57.892 57.8793C58.0975 57.6207 58.2036 57.3258 58.2102 56.9943C58.2036 56.6828 58.1009 56.411 57.902 56.179C57.7098 55.9403 57.3916 55.7282 56.9474 55.5426C56.5033 55.3504 55.9034 55.1714 55.1477 55.0057L53.1193 54.5682C51.3163 54.1771 49.8944 53.5241 48.8537 52.6094C47.8196 51.688 47.3059 50.4318 47.3125 48.8409C47.3059 47.5483 47.6506 46.4181 48.3466 45.4503C49.0492 44.4759 50.0204 43.7169 51.2599 43.1733C52.5062 42.6297 53.9347 42.358 55.5455 42.358C57.1894 42.358 58.6113 42.633 59.8111 43.1832C61.0109 43.7334 61.9356 44.509 62.5852 45.5099C63.2415 46.5043 63.5729 47.6676 63.5795 49H58.2898ZM70.4577 63H64.4918L71.2134 42.6364H78.7702L85.4918 63H79.5259L75.0714 48.2443H74.9123L70.4577 63ZM69.3441 54.9659H80.56V59.1023H69.3441V54.9659ZM90.0682 42.6364L94.2443 56.9943H94.4034L98.5795 42.6364H104.824L98.1023 63H90.5455L83.8239 42.6364H90.0682ZM106.785 63V42.6364H121.461V47.0909H112.314V50.5909H120.706V55.0455H112.314V58.5455H121.422V63H106.785Z" fill="white"/>
<path d="M70.483 80.8182C70.483 83.0388 70.062 84.928 69.2202 86.4858C68.3849 88.0436 67.2448 89.2334 65.7997 90.0554C64.3613 90.8707 62.7438 91.2784 60.9474 91.2784C59.1378 91.2784 57.5137 90.8674 56.0753 90.0455C54.6368 89.2235 53.5 88.0336 52.6648 86.4759C51.8295 84.9181 51.4119 83.0322 51.4119 80.8182C51.4119 78.5975 51.8295 76.7083 52.6648 75.1506C53.5 73.5928 54.6368 72.4062 56.0753 71.5909C57.5137 70.7689 59.1378 70.358 60.9474 70.358C62.7438 70.358 64.3613 70.7689 65.7997 71.5909C67.2448 72.4062 68.3849 73.5928 69.2202 75.1506C70.062 76.7083 70.483 78.5975 70.483 80.8182ZM66.1179 80.8182C66.1179 79.3797 65.9025 78.1667 65.4716 77.179C65.0473 76.1913 64.4474 75.4422 63.6719 74.9318C62.8963 74.4214 61.9882 74.1662 60.9474 74.1662C59.9067 74.1662 58.9986 74.4214 58.223 74.9318C57.4474 75.4422 56.8442 76.1913 56.4134 77.179C55.9891 78.1667 55.777 79.3797 55.777 80.8182C55.777 82.2566 55.9891 83.4697 56.4134 84.4574C56.8442 85.4451 57.4474 86.1941 58.223 86.7045C58.9986 87.215 59.9067 87.4702 60.9474 87.4702C61.9882 87.4702 62.8963 87.215 63.6719 86.7045C64.4474 86.1941 65.0473 85.4451 65.4716 84.4574C65.9025 83.4697 66.1179 82.2566 66.1179 80.8182ZM86.2504 70.6364H90.5558V83.8608C90.5558 85.3456 90.2011 86.6449 89.4918 87.7585C88.7892 88.8722 87.8048 89.7405 86.5387 90.3636C85.2726 90.9801 83.7977 91.2884 82.114 91.2884C80.4237 91.2884 78.9454 90.9801 77.6793 90.3636C76.4132 89.7405 75.4289 88.8722 74.7262 87.7585C74.0236 86.6449 73.6722 85.3456 73.6722 83.8608V70.6364H77.9776V83.4929C77.9776 84.2685 78.1467 84.9579 78.4847 85.5611C78.8294 86.1643 79.3133 86.6383 79.9364 86.983C80.5595 87.3277 81.2854 87.5 82.114 87.5C82.9492 87.5 83.6751 87.3277 84.2915 86.983C84.9147 86.6383 85.3952 86.1643 85.7333 85.5611C86.078 84.9579 86.2504 84.2685 86.2504 83.4929V70.6364ZM94.098 91V70.6364H102.132C103.67 70.6364 104.982 70.9115 106.07 71.4616C107.163 72.0052 107.995 72.7775 108.565 73.7784C109.142 74.7727 109.43 75.9427 109.43 77.2884C109.43 78.6406 109.139 79.804 108.555 80.7784C107.972 81.7462 107.127 82.4886 106.02 83.0057C104.92 83.5227 103.587 83.7812 102.023 83.7812H96.6435V80.321H101.327C102.149 80.321 102.831 80.2083 103.375 79.983C103.919 79.7576 104.323 79.4195 104.588 78.9688C104.86 78.518 104.996 77.9579 104.996 77.2884C104.996 76.6122 104.86 76.0421 104.588 75.5781C104.323 75.1141 103.915 74.7628 103.365 74.5241C102.821 74.2789 102.135 74.1562 101.307 74.1562H98.4034V91H94.098ZM105.095 81.733L110.156 91H105.403L100.452 81.733H105.095Z" fill="white"/>
</svg>
