<svg width="129" height="91" viewBox="0 0 129 91" fill="none" xmlns="http://www.w3.org/2000/svg">
<path d="M97.95 52C97.95 58.8774 92.9875 65.114 84.9418 69.6341C76.8976 74.1533 65.7814 76.95 53.5 76.95C41.2186 76.95 30.1024 74.1533 22.0582 69.6341C14.0125 65.114 9.05 58.8774 9.05 52C9.05 45.1226 14.0125 38.886 22.0582 34.3659C30.1024 29.8467 41.2186 27.05 53.5 27.05C65.7814 27.05 76.8976 29.8467 84.9418 34.3659C92.9875 38.886 97.95 45.1226 97.95 52Z" fill="white" stroke="black" stroke-width="0.1"/>
<path d="M115.861 24.8574C119.211 30.8637 117.915 38.7276 113.091 46.5945C108.267 54.4599 99.9212 62.3175 89.1956 68.3003C78.47 74.2831 67.3995 77.2558 58.1729 77.2277C48.9445 77.1996 41.5725 74.1706 38.2222 68.1643C34.8719 62.1581 36.1677 54.2941 40.9923 46.4272C45.816 38.5619 54.1616 30.7042 64.8872 24.7215C75.6128 18.7387 86.6833 15.766 95.9099 15.794C105.138 15.8221 112.51 18.8512 115.861 24.8574Z" fill="white" stroke="black" stroke-width="0.1"/>
<ellipse cx="18" cy="13" rx="18" ry="5" fill="#FF0000"/>
<ellipse cx="23" cy="18.5" rx="18" ry="6.5" fill="#FF0000"/>
<ellipse cx="19" cy="9.5" rx="12" ry="5.5" fill="#FF0000"/>
<ellipse cx="18.9343" cy="9.17682" rx="8.16223" ry="5.5" transform="rotate(78.5221 18.9343 9.17682)" fill="#FF0000"/>
<path d="M42.8096 25.9899C45.3975 32.3802 45.8976 38.9095 44.6163 44.2993C43.335 49.6892 40.2739 53.9352 35.7423 55.7704C31.2107 57.6056 26.0577 56.6862 21.387 53.7067C16.7164 50.7274 12.5321 45.69 9.94421 39.2998C7.35628 32.9096 6.85623 26.3802 8.13748 20.9904C9.41875 15.6005 12.4799 11.3545 17.0115 9.5193C21.5431 7.68408 26.6961 8.60353 31.3668 11.583C36.0374 14.5624 40.2216 19.5997 42.8096 25.9899Z" fill="white" stroke="black" stroke-width="0.1"/>
<path d="M17.4867 15.3728C18.0033 16.6485 17.4156 18.0877 16.1777 18.589C14.9399 19.0903 13.5163 18.4656 12.9997 17.1899C12.483 15.9142 13.0708 14.475 14.3086 13.9737C15.5464 13.4724 16.97 14.0971 17.4867 15.3728Z" fill="black" stroke="black" stroke-width="0.1"/>
<path d="M60.95 43.5C60.95 48.0333 58.0545 52.1446 53.358 55.125C48.6621 58.1051 42.1717 59.95 35 59.95C27.8283 59.95 21.3379 58.1051 16.642 55.125C11.9455 52.1446 9.05 48.0333 9.05 43.5C9.05 38.9667 11.9455 34.8554 16.642 31.875C21.3379 28.8949 27.8283 27.05 35 27.05C42.1717 27.05 48.6621 28.8949 53.358 31.875C58.0545 34.8554 60.95 38.9667 60.95 43.5Z" fill="white" stroke="black" stroke-width="0.1"/>
<path d="M66.95 49.5C66.95 54.0333 64.0545 58.1446 59.358 61.125C54.6621 64.1051 48.1717 65.95 41 65.95C33.8283 65.95 27.3379 64.1051 22.642 61.125C17.9455 58.1446 15.05 54.0333 15.05 49.5C15.05 44.9667 17.9455 40.8554 22.642 37.875C27.3379 34.8949 33.8283 33.05 41 33.05C48.1717 33.05 54.6621 34.8949 59.358 37.875C64.0545 40.8554 66.95 44.9667 66.95 49.5Z" fill="white" stroke="black" stroke-width="0.1"/>
<path d="M72.95 55.5C72.95 60.0333 70.0545 64.1446 65.358 67.125C60.6621 70.1051 54.1717 71.95 47 71.95C39.8283 71.95 33.3379 70.1051 28.642 67.125C23.9455 64.1446 21.05 60.0333 21.05 55.5C21.05 50.9667 23.9455 46.8554 28.642 43.875C33.3379 40.8949 39.8283 39.05 47 39.05C54.1717 39.05 60.6621 40.8949 65.358 43.875C70.0545 46.8554 72.95 50.9667 72.95 55.5Z" fill="white" stroke="black" stroke-width="0.1"/>
</svg>
