<svg width="925" height="471" viewBox="0 0 925 471" fill="none" xmlns="http://www.w3.org/2000/svg">
<path d="M277.169 73.2756C277.055 72.1297 276.568 71.2396 275.706 70.6051C274.844 69.9706 273.675 69.6534 272.197 69.6534C271.194 69.6534 270.346 69.7955 269.655 70.0795C268.964 70.3542 268.433 70.7377 268.064 71.2301C267.704 71.7225 267.524 72.2812 267.524 72.9062C267.505 73.4271 267.614 73.8816 267.851 74.2699C268.097 74.6581 268.433 74.9943 268.859 75.2784C269.286 75.553 269.778 75.7945 270.337 76.0028C270.895 76.2017 271.492 76.3722 272.126 76.5142L274.74 77.1392C276.009 77.4233 277.174 77.8021 278.234 78.2756C279.295 78.7491 280.214 79.3314 280.99 80.0227C281.767 80.714 282.368 81.5284 282.794 82.4659C283.23 83.4034 283.452 84.4782 283.462 85.6903C283.452 87.4706 282.998 89.0142 282.098 90.321C281.208 91.6184 279.92 92.6269 278.234 93.3466C276.558 94.0568 274.536 94.4119 272.169 94.4119C269.821 94.4119 267.775 94.0521 266.033 93.3324C264.3 92.6127 262.946 91.5473 261.97 90.1364C261.004 88.7159 260.498 86.9593 260.45 84.8665H266.402C266.468 85.8419 266.748 86.6562 267.24 87.3097C267.742 87.9536 268.41 88.4413 269.243 88.7727C270.086 89.0947 271.037 89.2557 272.098 89.2557C273.14 89.2557 274.044 89.1042 274.811 88.8011C275.588 88.4981 276.189 88.0767 276.615 87.5369C277.041 86.9972 277.254 86.3769 277.254 85.6761C277.254 85.0227 277.06 84.4735 276.672 84.0284C276.293 83.5833 275.734 83.2045 274.996 82.892C274.267 82.5795 273.372 82.2955 272.311 82.0398L269.143 81.2443C266.691 80.6477 264.754 79.715 263.334 78.446C261.913 77.1771 261.208 75.4678 261.217 73.3182C261.208 71.5568 261.677 70.018 262.624 68.7017C263.58 67.3854 264.892 66.358 266.558 65.6193C268.225 64.8807 270.119 64.5114 272.24 64.5114C274.399 64.5114 276.284 64.8807 277.893 65.6193C279.513 66.358 280.772 67.3854 281.672 68.7017C282.571 70.018 283.036 71.5426 283.064 73.2756H277.169ZM299.09 72.1818V76.7273H285.951V72.1818H299.09ZM288.934 66.9545H294.985V87.2955C294.985 87.8542 295.07 88.2898 295.241 88.6023C295.411 88.9053 295.648 89.1184 295.951 89.2415C296.263 89.3646 296.623 89.4261 297.031 89.4261C297.315 89.4261 297.599 89.4025 297.883 89.3551C298.167 89.2983 298.385 89.2557 298.536 89.2273L299.488 93.7301C299.185 93.8248 298.759 93.9337 298.21 94.0568C297.66 94.1894 296.993 94.2699 296.207 94.2983C294.748 94.3551 293.47 94.161 292.371 93.7159C291.282 93.2708 290.435 92.5795 289.829 91.642C289.223 90.7045 288.924 89.5208 288.934 88.0909V66.9545ZM303.032 94V72.1818H309.083V94H303.032ZM306.072 69.3693C305.172 69.3693 304.4 69.071 303.756 68.4744C303.122 67.8684 302.805 67.1439 302.805 66.3011C302.805 65.4678 303.122 64.7528 303.756 64.1562C304.4 63.5502 305.172 63.2472 306.072 63.2472C306.971 63.2472 307.738 63.5502 308.373 64.1562C309.017 64.7528 309.339 65.4678 309.339 66.3011C309.339 67.1439 309.017 67.8684 308.373 68.4744C307.738 69.071 306.971 69.3693 306.072 69.3693ZM319.982 64.9091V94H313.93V64.9091H319.982ZM330.88 64.9091V94H324.829V64.9091H330.88ZM344.985 94V72.1818H351.036V94H344.985ZM348.025 69.3693C347.125 69.3693 346.353 69.071 345.71 68.4744C345.075 67.8684 344.758 67.1439 344.758 66.3011C344.758 65.4678 345.075 64.7528 345.71 64.1562C346.353 63.5502 347.125 63.2472 348.025 63.2472C348.924 63.2472 349.692 63.5502 350.326 64.1562C350.97 64.7528 351.292 65.4678 351.292 66.3011C351.292 67.1439 350.97 67.8684 350.326 68.4744C349.692 69.071 348.924 69.3693 348.025 69.3693ZM361.935 81.3864V94H355.884V72.1818H361.651V76.0312H361.906C362.389 74.7623 363.199 73.7585 364.335 73.0199C365.472 72.2718 366.849 71.8977 368.469 71.8977C369.984 71.8977 371.305 72.2292 372.432 72.892C373.559 73.5549 374.435 74.5019 375.06 75.733C375.685 76.9545 375.997 78.4129 375.997 80.108V94H369.946V81.1875C369.955 79.8523 369.615 78.8106 368.923 78.0625C368.232 77.3049 367.28 76.9261 366.068 76.9261C365.254 76.9261 364.534 77.1013 363.909 77.4517C363.294 77.8021 362.811 78.3134 362.46 78.9858C362.119 79.6487 361.944 80.4489 361.935 81.3864ZM401.629 72.1818V76.7273H388.49V72.1818H401.629ZM391.473 66.9545H397.524V87.2955C397.524 87.8542 397.609 88.2898 397.78 88.6023C397.95 88.9053 398.187 89.1184 398.49 89.2415C398.803 89.3646 399.162 89.4261 399.57 89.4261C399.854 89.4261 400.138 89.4025 400.422 89.3551C400.706 89.2983 400.924 89.2557 401.075 89.2273L402.027 93.7301C401.724 93.8248 401.298 93.9337 400.749 94.0568C400.199 94.1894 399.532 94.2699 398.746 94.2983C397.287 94.3551 396.009 94.161 394.911 93.7159C393.821 93.2708 392.974 92.5795 392.368 91.642C391.762 90.7045 391.464 89.5208 391.473 88.0909V66.9545ZM412.091 81.3864V94H406.04V64.9091H411.92V76.0312H412.176C412.669 74.7434 413.464 73.7348 414.562 73.0057C415.661 72.267 417.039 71.8977 418.696 71.8977C420.211 71.8977 421.532 72.2292 422.659 72.892C423.795 73.5455 424.676 74.4877 425.301 75.7188C425.936 76.9403 426.248 78.4034 426.239 80.108V94H420.188V81.1875C420.197 79.8428 419.856 78.7964 419.165 78.0483C418.483 77.3002 417.527 76.9261 416.295 76.9261C415.472 76.9261 414.742 77.1013 414.108 77.4517C413.483 77.8021 412.991 78.3134 412.631 78.9858C412.28 79.6487 412.1 80.4489 412.091 81.3864ZM437.222 94.4119C435.83 94.4119 434.59 94.1705 433.501 93.6875C432.412 93.1951 431.55 92.4706 430.915 91.5142C430.29 90.5483 429.978 89.3456 429.978 87.9062C429.978 86.6941 430.201 85.6761 430.646 84.8523C431.091 84.0284 431.697 83.3655 432.464 82.8636C433.231 82.3617 434.102 81.983 435.077 81.7273C436.062 81.4716 437.094 81.2917 438.174 81.1875C439.443 81.0549 440.466 80.9318 441.242 80.8182C442.019 80.6951 442.582 80.5152 442.933 80.2784C443.283 80.0417 443.458 79.6913 443.458 79.2273V79.142C443.458 78.2424 443.174 77.5464 442.606 77.054C442.047 76.5616 441.252 76.3153 440.219 76.3153C439.13 76.3153 438.264 76.5568 437.62 77.0398C436.976 77.5133 436.55 78.1098 436.342 78.8295L430.745 78.375C431.029 77.0492 431.588 75.9034 432.421 74.9375C433.254 73.9621 434.329 73.214 435.646 72.6932C436.971 72.1629 438.505 71.8977 440.248 71.8977C441.46 71.8977 442.62 72.0398 443.728 72.3239C444.845 72.608 445.835 73.0483 446.697 73.6449C447.568 74.2415 448.254 75.0085 448.756 75.946C449.258 76.8741 449.509 77.9867 449.509 79.2841V94H443.771V90.9744H443.6C443.25 91.6562 442.781 92.2576 442.194 92.7784C441.607 93.2898 440.901 93.6922 440.077 93.9858C439.254 94.2699 438.302 94.4119 437.222 94.4119ZM438.955 90.2358C439.845 90.2358 440.631 90.0606 441.313 89.7102C441.995 89.3504 442.53 88.8674 442.918 88.2614C443.307 87.6553 443.501 86.9687 443.501 86.2017V83.8864C443.311 84.0095 443.051 84.1231 442.719 84.2273C442.397 84.322 442.033 84.4119 441.626 84.4972C441.219 84.5729 440.811 84.6439 440.404 84.7102C439.997 84.767 439.628 84.8191 439.296 84.8665C438.586 84.9706 437.966 85.1364 437.435 85.3636C436.905 85.5909 436.493 85.8987 436.2 86.2869C435.906 86.6657 435.759 87.1392 435.759 87.7074C435.759 88.5312 436.058 89.161 436.654 89.5966C437.26 90.0227 438.027 90.2358 438.955 90.2358ZM465.809 72.1818V76.7273H452.67V72.1818H465.809ZM455.653 66.9545H461.704V87.2955C461.704 87.8542 461.789 88.2898 461.96 88.6023C462.13 88.9053 462.367 89.1184 462.67 89.2415C462.982 89.3646 463.342 89.4261 463.749 89.4261C464.033 89.4261 464.317 89.4025 464.602 89.3551C464.886 89.2983 465.103 89.2557 465.255 89.2273L466.207 93.7301C465.904 93.8248 465.478 93.9337 464.928 94.0568C464.379 94.1894 463.711 94.2699 462.925 94.2983C461.467 94.3551 460.189 94.161 459.09 93.7159C458.001 93.2708 457.154 92.5795 456.548 91.642C455.942 90.7045 455.643 89.5208 455.653 88.0909V66.9545ZM488.838 102.636C486.878 102.636 485.197 102.366 483.795 101.827C482.403 101.296 481.295 100.572 480.472 99.6534C479.648 98.7348 479.113 97.7027 478.866 96.5568L484.463 95.804C484.634 96.2396 484.903 96.6468 485.273 97.0256C485.642 97.4044 486.13 97.7074 486.736 97.9347C487.351 98.1714 488.099 98.2898 488.98 98.2898C490.296 98.2898 491.381 97.9678 492.233 97.3239C493.095 96.6894 493.526 95.6241 493.526 94.1278V90.1364H493.27C493.005 90.7424 492.607 91.3153 492.077 91.8551C491.546 92.3949 490.865 92.8352 490.031 93.1761C489.198 93.517 488.204 93.6875 487.048 93.6875C485.41 93.6875 483.919 93.3087 482.574 92.5511C481.239 91.7841 480.173 90.6146 479.378 89.0426C478.592 87.4612 478.199 85.4631 478.199 83.0483C478.199 80.5767 478.601 78.5123 479.406 76.8551C480.211 75.1979 481.281 73.9574 482.616 73.1335C483.961 72.3097 485.434 71.8977 487.034 71.8977C488.256 71.8977 489.278 72.1061 490.102 72.5227C490.926 72.9299 491.589 73.4413 492.091 74.0568C492.602 74.6629 492.995 75.2595 493.27 75.8466H493.497V72.1818H499.506V94.2131C499.506 96.0691 499.051 97.6222 498.142 98.8722C497.233 100.122 495.973 101.06 494.364 101.685C492.763 102.319 490.921 102.636 488.838 102.636ZM488.966 89.142C489.941 89.142 490.765 88.9006 491.438 88.4176C492.119 87.9252 492.64 87.2244 493 86.3153C493.369 85.3968 493.554 84.2983 493.554 83.0199C493.554 81.7415 493.374 80.6335 493.014 79.696C492.654 78.7491 492.134 78.0152 491.452 77.4943C490.77 76.9735 489.941 76.7131 488.966 76.7131C487.972 76.7131 487.134 76.983 486.452 77.5227C485.77 78.053 485.254 78.7917 484.903 79.7386C484.553 80.6856 484.378 81.7794 484.378 83.0199C484.378 84.2794 484.553 85.3684 484.903 86.2869C485.263 87.196 485.779 87.9015 486.452 88.4034C487.134 88.8958 487.972 89.142 488.966 89.142ZM504.321 94V72.1818H510.188V75.9886H510.415C510.813 74.6345 511.48 73.6117 512.418 72.9205C513.355 72.2197 514.435 71.8693 515.656 71.8693C515.959 71.8693 516.286 71.8883 516.636 71.9261C516.987 71.964 517.295 72.0161 517.56 72.0824V77.4517C517.276 77.3665 516.883 77.2907 516.381 77.2244C515.879 77.1581 515.42 77.125 515.003 77.125C514.113 77.125 513.317 77.3191 512.616 77.7074C511.925 78.0862 511.376 78.6165 510.969 79.2983C510.571 79.9801 510.372 80.7661 510.372 81.6562V94H504.321ZM520.688 94V72.1818H526.739V94H520.688ZM523.728 69.3693C522.828 69.3693 522.057 69.071 521.413 68.4744C520.778 67.8684 520.461 67.1439 520.461 66.3011C520.461 65.4678 520.778 64.7528 521.413 64.1562C522.057 63.5502 522.828 63.2472 523.728 63.2472C524.628 63.2472 525.395 63.5502 526.029 64.1562C526.673 64.7528 526.995 65.4678 526.995 66.3011C526.995 67.1439 526.673 67.8684 526.029 68.4744C525.395 69.071 524.628 69.3693 523.728 69.3693ZM537.638 81.3864V94H531.587V72.1818H537.354V76.0312H537.609C538.092 74.7623 538.902 73.7585 540.038 73.0199C541.175 72.2718 542.553 71.8977 544.172 71.8977C545.687 71.8977 547.008 72.2292 548.135 72.892C549.262 73.5549 550.138 74.5019 550.763 75.733C551.388 76.9545 551.7 78.4129 551.7 80.108V94H545.649V81.1875C545.659 79.8523 545.318 78.8106 544.626 78.0625C543.935 77.3049 542.983 76.9261 541.771 76.9261C540.957 76.9261 540.237 77.1013 539.612 77.4517C538.997 77.8021 538.514 78.3134 538.163 78.9858C537.822 79.6487 537.647 80.4489 537.638 81.3864ZM564.509 94.3551C562.852 94.3551 561.351 93.929 560.006 93.0767C558.671 92.215 557.611 90.9508 556.825 89.2841C556.048 87.608 555.66 85.553 555.66 83.1193C555.66 80.6193 556.062 78.5407 556.867 76.8835C557.672 75.2169 558.742 73.9716 560.077 73.1477C561.422 72.3144 562.895 71.8977 564.495 71.8977C565.717 71.8977 566.735 72.1061 567.549 72.5227C568.373 72.9299 569.036 73.4413 569.538 74.0568C570.049 74.6629 570.437 75.2595 570.702 75.8466H570.887V64.9091H576.924V94H570.958V90.5057H570.702C570.418 91.1117 570.016 91.7131 569.495 92.3097C568.984 92.8968 568.316 93.3845 567.492 93.7727C566.678 94.161 565.683 94.3551 564.509 94.3551ZM566.427 89.5398C567.402 89.5398 568.226 89.2746 568.898 88.7443C569.58 88.2045 570.101 87.4517 570.461 86.4858C570.83 85.5199 571.015 84.3883 571.015 83.0909C571.015 81.7936 570.835 80.6667 570.475 79.7102C570.115 78.7538 569.594 78.0152 568.913 77.4943C568.231 76.9735 567.402 76.7131 566.427 76.7131C565.433 76.7131 564.594 76.983 563.913 77.5227C563.231 78.0625 562.715 78.8106 562.364 79.767C562.014 80.7235 561.839 81.8314 561.839 83.0909C561.839 84.3598 562.014 85.482 562.364 86.4574C562.724 87.4233 563.24 88.1809 563.913 88.7301C564.594 89.2699 565.433 89.5398 566.427 89.5398ZM600.053 78.4034L594.513 78.7443C594.418 78.2708 594.214 77.8447 593.902 77.4659C593.589 77.0777 593.178 76.7699 592.666 76.5426C592.164 76.3059 591.563 76.1875 590.862 76.1875C589.925 76.1875 589.134 76.3864 588.49 76.7841C587.846 77.1723 587.524 77.6932 587.524 78.3466C587.524 78.8674 587.732 79.3078 588.149 79.6676C588.566 80.0275 589.281 80.3163 590.294 80.5341L594.243 81.3295C596.364 81.7652 597.946 82.4659 598.987 83.4318C600.029 84.3977 600.55 85.6667 600.55 87.2386C600.55 88.6686 600.128 89.9233 599.286 91.0028C598.452 92.0824 597.306 92.9252 595.848 93.5312C594.399 94.1278 592.728 94.4261 590.834 94.4261C587.946 94.4261 585.644 93.8248 583.93 92.6222C582.226 91.41 581.227 89.7623 580.933 87.679L586.885 87.3665C587.065 88.2472 587.5 88.9195 588.192 89.3835C588.883 89.8381 589.768 90.0653 590.848 90.0653C591.909 90.0653 592.761 89.8617 593.405 89.4545C594.058 89.0379 594.39 88.5028 594.399 87.8494C594.39 87.3002 594.158 86.8504 593.703 86.5C593.249 86.1402 592.548 85.8655 591.601 85.6761L587.822 84.9233C585.692 84.4972 584.106 83.7585 583.064 82.7074C582.032 81.6562 581.516 80.3163 581.516 78.6875C581.516 77.286 581.894 76.0786 582.652 75.0653C583.419 74.0521 584.494 73.2708 585.876 72.7216C587.268 72.1723 588.897 71.8977 590.763 71.8977C593.518 71.8977 595.687 72.4801 597.268 73.6449C598.859 74.8097 599.787 76.3958 600.053 78.4034ZM614.303 94.4261C612.059 94.4261 610.127 93.9716 608.508 93.0625C606.898 92.1439 605.657 90.8466 604.786 89.1705C603.915 87.4848 603.479 85.4915 603.479 83.1903C603.479 80.946 603.915 78.9763 604.786 77.2812C605.657 75.5862 606.884 74.2652 608.465 73.3182C610.056 72.3712 611.922 71.8977 614.062 71.8977C615.501 71.8977 616.841 72.1297 618.082 72.5938C619.332 73.0483 620.421 73.7348 621.349 74.6534C622.286 75.572 623.015 76.7273 623.536 78.1193C624.057 79.5019 624.317 81.1212 624.317 82.9773V84.6392H605.894V80.8892H618.621C618.621 80.018 618.432 79.2462 618.053 78.5739C617.674 77.9015 617.149 77.3759 616.477 76.9972C615.814 76.6089 615.042 76.4148 614.161 76.4148C613.243 76.4148 612.428 76.6278 611.718 77.054C611.017 77.4706 610.468 78.0341 610.07 78.7443C609.673 79.4451 609.469 80.2263 609.46 81.0881V84.6534C609.46 85.733 609.658 86.6657 610.056 87.4517C610.463 88.2377 611.036 88.8438 611.775 89.2699C612.513 89.696 613.389 89.9091 614.403 89.9091C615.075 89.9091 615.691 89.8144 616.249 89.625C616.808 89.4356 617.286 89.1515 617.684 88.7727C618.082 88.3939 618.385 87.9299 618.593 87.3807L624.19 87.75C623.906 89.0947 623.323 90.2689 622.442 91.2727C621.571 92.267 620.444 93.0436 619.062 93.6023C617.689 94.1515 616.103 94.4261 614.303 94.4261ZM639.871 72.1818V76.7273H626.732V72.1818H639.871ZM629.715 66.9545H635.766V87.2955C635.766 87.8542 635.852 88.2898 636.022 88.6023C636.192 88.9053 636.429 89.1184 636.732 89.2415C637.045 89.3646 637.405 89.4261 637.812 89.4261C638.096 89.4261 638.38 89.4025 638.664 89.3551C638.948 89.2983 639.166 89.2557 639.317 89.2273L640.269 93.7301C639.966 93.8248 639.54 93.9337 638.991 94.0568C638.442 94.1894 637.774 94.2699 636.988 94.2983C635.53 94.3551 634.251 94.161 633.153 93.7159C632.064 93.2708 631.216 92.5795 630.61 91.642C630.004 90.7045 629.706 89.5208 629.715 88.0909V66.9545ZM647.35 94.3693C646.413 94.3693 645.608 94.0379 644.935 93.375C644.272 92.7027 643.941 91.8977 643.941 90.9602C643.941 90.0322 644.272 89.2367 644.935 88.5739C645.608 87.911 646.413 87.5795 647.35 87.5795C648.259 87.5795 649.055 87.911 649.737 88.5739C650.418 89.2367 650.759 90.0322 650.759 90.9602C650.759 91.5852 650.598 92.1581 650.276 92.679C649.964 93.1903 649.552 93.6023 649.04 93.9148C648.529 94.2178 647.966 94.3693 647.35 94.3693ZM659.264 94.3693C658.327 94.3693 657.522 94.0379 656.849 93.375C656.187 92.7027 655.855 91.8977 655.855 90.9602C655.855 90.0322 656.187 89.2367 656.849 88.5739C657.522 87.911 658.327 87.5795 659.264 87.5795C660.173 87.5795 660.969 87.911 661.651 88.5739C662.332 89.2367 662.673 90.0322 662.673 90.9602C662.673 91.5852 662.512 92.1581 662.19 92.679C661.878 93.1903 661.466 93.6023 660.955 93.9148C660.443 94.2178 659.88 94.3693 659.264 94.3693ZM671.178 94.3693C670.241 94.3693 669.436 94.0379 668.763 93.375C668.101 92.7027 667.769 91.8977 667.769 90.9602C667.769 90.0322 668.101 89.2367 668.763 88.5739C669.436 87.911 670.241 87.5795 671.178 87.5795C672.087 87.5795 672.883 87.911 673.565 88.5739C674.246 89.2367 674.587 90.0322 674.587 90.9602C674.587 91.5852 674.426 92.1581 674.104 92.679C673.792 93.1903 673.38 93.6023 672.869 93.9148C672.357 94.2178 671.794 94.3693 671.178 94.3693Z" fill="black"/>
<path d="M355.68 236H355.1L361.339 218.545H362.089L368.328 236H367.748L361.748 219.227H361.68L355.68 236ZM357.657 229.557H365.771V230.102H357.657V229.557ZM384.924 218.545V236H384.378L372.446 219.568H372.378V236H371.833V218.545H372.378L384.31 234.977H384.378V218.545H384.924ZM394.94 236H390.372V218.545H395.383C396.991 218.545 398.366 218.892 399.508 219.585C400.656 220.273 401.534 221.261 402.142 222.551C402.755 223.841 403.059 225.392 403.054 227.205C403.048 229.062 402.724 230.648 402.082 231.96C401.446 233.267 400.522 234.267 399.312 234.96C398.108 235.653 396.65 236 394.94 236ZM390.917 235.455H394.94C396.554 235.455 397.926 235.128 399.056 234.474C400.187 233.815 401.045 232.869 401.63 231.636C402.221 230.403 402.514 228.926 402.508 227.205C402.502 225.506 402.218 224.051 401.656 222.841C401.099 221.631 400.292 220.705 399.235 220.062C398.179 219.415 396.895 219.091 395.383 219.091H390.917V235.455ZM413.937 236V222.909H414.483V236H413.937ZM414.21 220.523C414.062 220.523 413.934 220.469 413.826 220.361C413.718 220.253 413.664 220.125 413.664 219.977C413.664 219.83 413.718 219.702 413.826 219.594C413.934 219.486 414.062 219.432 414.21 219.432C414.358 219.432 414.485 219.486 414.593 219.594C414.701 219.702 414.755 219.83 414.755 219.977C414.755 220.125 414.701 220.253 414.593 220.361C414.485 220.469 414.358 220.523 414.21 220.523ZM423.28 222.909V223.455H418.098V222.909H423.28ZM420.007 219.773H420.553V233.239C420.553 233.75 420.667 234.19 420.894 234.56C421.121 234.923 421.422 235.205 421.797 235.403C422.172 235.597 422.576 235.693 423.007 235.693C423.172 235.693 423.323 235.679 423.459 235.651C423.601 235.622 423.746 235.58 423.894 235.523L424.064 236.034C423.894 236.097 423.726 236.145 423.561 236.179C423.397 236.219 423.212 236.239 423.007 236.239C422.473 236.239 421.976 236.116 421.516 235.872C421.061 235.628 420.695 235.281 420.417 234.832C420.144 234.384 420.007 233.852 420.007 233.239V219.773ZM428.475 218.545V220.08C428.475 220.545 428.39 221.043 428.219 221.571C428.054 222.094 427.81 222.602 427.486 223.097C427.168 223.585 426.782 224.011 426.327 224.375L426.02 223.966C426.588 223.5 427.049 222.906 427.401 222.185C427.753 221.457 427.929 220.756 427.929 220.08V218.545H428.475ZM437.765 225.67L437.219 225.807C437.043 225.239 436.796 224.767 436.478 224.392C436.165 224.011 435.782 223.727 435.327 223.54C434.873 223.347 434.344 223.25 433.742 223.25C432.696 223.25 431.85 223.517 431.202 224.051C430.554 224.58 430.23 225.278 430.23 226.148C430.23 226.835 430.449 227.412 430.887 227.878C431.33 228.344 431.998 228.687 432.89 228.909L434.935 229.42C435.895 229.659 436.623 230.062 437.117 230.631C437.617 231.199 437.867 231.886 437.867 232.693C437.867 233.403 437.679 234.028 437.304 234.568C436.935 235.108 436.424 235.528 435.77 235.83C435.117 236.125 434.361 236.273 433.503 236.273C432.338 236.273 431.387 235.989 430.648 235.42C429.909 234.852 429.429 234.045 429.208 233L429.753 232.864C429.946 233.79 430.358 234.5 430.989 234.994C431.625 235.483 432.463 235.727 433.503 235.727C434.64 235.727 435.56 235.449 436.265 234.892C436.969 234.335 437.321 233.602 437.321 232.693C437.321 232.017 437.111 231.446 436.691 230.98C436.27 230.514 435.64 230.176 434.799 229.966L432.753 229.455C431.748 229.205 430.983 228.795 430.461 228.227C429.944 227.659 429.685 226.966 429.685 226.148C429.685 225.46 429.855 224.861 430.196 224.349C430.543 223.832 431.02 223.429 431.628 223.139C432.242 222.849 432.946 222.705 433.742 222.705C434.753 222.705 435.597 222.955 436.273 223.455C436.949 223.949 437.446 224.687 437.765 225.67ZM448.578 236V222.909H449.123V236H448.578ZM448.85 220.523C448.703 220.523 448.575 220.469 448.467 220.361C448.359 220.253 448.305 220.125 448.305 219.977C448.305 219.83 448.359 219.702 448.467 219.594C448.575 219.486 448.703 219.432 448.85 219.432C448.998 219.432 449.126 219.486 449.234 219.594C449.342 219.702 449.396 219.83 449.396 219.977C449.396 220.125 449.342 220.253 449.234 220.361C449.126 220.469 448.998 220.523 448.85 220.523ZM454.375 227.205V236H453.83V222.909H454.375V224.989H454.444C454.75 224.307 455.253 223.761 455.952 223.352C456.657 222.943 457.461 222.739 458.364 222.739C459.239 222.739 460.012 222.929 460.682 223.31C461.353 223.69 461.878 224.216 462.259 224.886C462.64 225.557 462.83 226.33 462.83 227.205V236H462.284V227.205C462.284 226.045 461.921 225.102 461.194 224.375C460.466 223.648 459.523 223.284 458.364 223.284C457.591 223.284 456.904 223.452 456.301 223.787C455.705 224.122 455.233 224.585 454.887 225.176C454.546 225.767 454.375 226.443 454.375 227.205ZM482.061 225.67L481.516 225.807C481.34 225.239 481.093 224.767 480.775 224.392C480.462 224.011 480.078 223.727 479.624 223.54C479.169 223.347 478.641 223.25 478.039 223.25C476.993 223.25 476.147 223.517 475.499 224.051C474.851 224.58 474.527 225.278 474.527 226.148C474.527 226.835 474.746 227.412 475.184 227.878C475.627 228.344 476.294 228.687 477.186 228.909L479.232 229.42C480.192 229.659 480.919 230.062 481.414 230.631C481.914 231.199 482.164 231.886 482.164 232.693C482.164 233.403 481.976 234.028 481.601 234.568C481.232 235.108 480.721 235.528 480.067 235.83C479.414 236.125 478.658 236.273 477.8 236.273C476.635 236.273 475.684 235.989 474.945 235.42C474.206 234.852 473.726 234.045 473.505 233L474.05 232.864C474.243 233.79 474.655 234.5 475.286 234.994C475.922 235.483 476.76 235.727 477.8 235.727C478.936 235.727 479.857 235.449 480.561 234.892C481.266 234.335 481.618 233.602 481.618 232.693C481.618 232.017 481.408 231.446 480.988 230.98C480.567 230.514 479.936 230.176 479.096 229.966L477.05 229.455C476.044 229.205 475.28 228.795 474.757 228.227C474.24 227.659 473.982 226.966 473.982 226.148C473.982 225.46 474.152 224.861 474.493 224.349C474.84 223.832 475.317 223.429 475.925 223.139C476.539 222.849 477.243 222.705 478.039 222.705C479.05 222.705 479.894 222.955 480.57 223.455C481.246 223.949 481.743 224.687 482.061 225.67ZM486.602 227.205V236H486.056V218.545H486.602V224.989H486.67C486.977 224.307 487.48 223.761 488.179 223.352C488.883 222.943 489.687 222.739 490.591 222.739C491.466 222.739 492.238 222.929 492.909 223.31C493.579 223.69 494.105 224.216 494.485 224.886C494.866 225.557 495.056 226.33 495.056 227.205V236H494.511V227.205C494.511 226.045 494.147 225.102 493.42 224.375C492.693 223.648 491.75 223.284 490.591 223.284C489.818 223.284 489.13 223.452 488.528 223.787C487.931 224.122 487.46 224.585 487.113 225.176C486.772 225.767 486.602 226.443 486.602 227.205ZM502.97 236.273C502.254 236.273 501.592 236.125 500.984 235.83C500.382 235.534 499.896 235.102 499.527 234.534C499.163 233.966 498.981 233.273 498.981 232.455C498.981 232.011 499.052 231.597 499.194 231.21C499.336 230.818 499.586 230.463 499.944 230.145C500.302 229.827 500.802 229.554 501.444 229.327C502.092 229.099 502.919 228.926 503.924 228.807C504.527 228.739 505.095 228.659 505.629 228.568C506.163 228.477 506.598 228.341 506.933 228.159C507.268 227.977 507.436 227.716 507.436 227.375V226.591C507.436 225.585 507.098 224.778 506.422 224.17C505.745 223.557 504.845 223.25 503.72 223.25C502.799 223.25 501.995 223.455 501.308 223.864C500.62 224.267 500.14 224.835 499.868 225.568L499.356 225.364C499.561 224.818 499.876 224.347 500.302 223.949C500.728 223.551 501.234 223.244 501.819 223.028C502.404 222.812 503.038 222.705 503.72 222.705C504.385 222.705 504.978 222.804 505.501 223.003C506.029 223.196 506.478 223.469 506.848 223.821C507.217 224.168 507.498 224.577 507.691 225.048C507.885 225.52 507.981 226.034 507.981 226.591V236H507.436V233.341H507.368C507.095 233.932 506.74 234.449 506.302 234.892C505.87 235.33 505.37 235.67 504.802 235.915C504.24 236.153 503.629 236.273 502.97 236.273ZM502.97 235.727C503.799 235.727 504.552 235.506 505.228 235.062C505.904 234.614 506.441 233.991 506.839 233.196C507.237 232.395 507.436 231.466 507.436 230.409V228.432C507.277 228.551 507.083 228.656 506.856 228.747C506.635 228.838 506.382 228.92 506.098 228.994C505.819 229.062 505.515 229.122 505.186 229.173C504.856 229.224 504.504 229.273 504.129 229.318C502.958 229.455 502.038 229.662 501.368 229.94C500.697 230.219 500.223 230.568 499.944 230.989C499.666 231.409 499.527 231.898 499.527 232.455C499.527 233.443 499.856 234.236 500.515 234.832C501.18 235.429 501.998 235.727 502.97 235.727ZM512.681 236V222.909H513.227V224.852H513.295C513.534 224.216 513.96 223.705 514.574 223.318C515.193 222.932 515.937 222.739 516.806 222.739C517.795 222.739 518.582 222.983 519.167 223.472C519.758 223.96 520.164 224.614 520.386 225.432H520.454C520.67 224.614 521.108 223.96 521.767 223.472C522.426 222.983 523.25 222.739 524.238 222.739C525.551 222.739 526.52 223.156 527.145 223.991C527.775 224.821 528.091 225.892 528.091 227.205V236H527.545V227.205C527.545 226.045 527.284 225.102 526.761 224.375C526.238 223.648 525.397 223.284 524.238 223.284C523.079 223.284 522.193 223.653 521.579 224.392C520.966 225.125 520.659 226.062 520.659 227.205V236H520.113V227.205C520.113 226.045 519.852 225.102 519.329 224.375C518.806 223.648 517.966 223.284 516.806 223.284C516.034 223.284 515.38 223.452 514.846 223.787C514.318 224.122 513.914 224.585 513.636 225.176C513.363 225.767 513.227 226.443 513.227 227.205V236H512.681ZM533.13 236V218.545H533.675V226.25H533.743C533.971 225.523 534.3 224.895 534.732 224.366C535.164 223.832 535.672 223.423 536.257 223.139C536.843 222.849 537.482 222.705 538.175 222.705C539.198 222.705 540.087 223.003 540.843 223.599C541.598 224.196 542.184 225.006 542.598 226.028C543.013 227.051 543.221 228.205 543.221 229.489C543.221 230.778 543.013 231.935 542.598 232.957C542.189 233.98 541.607 234.79 540.851 235.386C540.101 235.977 539.209 236.273 538.175 236.273C537.476 236.273 536.834 236.128 536.249 235.838C535.669 235.548 535.167 235.139 534.74 234.611C534.314 234.077 533.982 233.449 533.743 232.727H533.675V236H533.13ZM533.675 229.489C533.675 230.67 533.857 231.733 534.221 232.676C534.584 233.614 535.101 234.358 535.772 234.909C536.448 235.455 537.249 235.727 538.175 235.727C539.101 235.727 539.9 235.455 540.57 234.909C541.246 234.358 541.766 233.614 542.13 232.676C542.493 231.733 542.675 230.67 542.675 229.489C542.675 228.307 542.49 227.247 542.121 226.31C541.757 225.366 541.238 224.622 540.561 224.077C539.891 223.526 539.096 223.25 538.175 223.25C537.255 223.25 536.456 223.526 535.78 224.077C535.11 224.622 534.59 225.366 534.221 226.31C533.857 227.247 533.675 228.307 533.675 229.489ZM547.61 218.545V236H547.064V218.545H547.61ZM557.153 236.273C556.011 236.273 555.011 235.974 554.153 235.378C553.301 234.781 552.639 233.972 552.167 232.949C551.696 231.926 551.46 230.773 551.46 229.489C551.46 228.205 551.696 227.051 552.167 226.028C552.645 225.006 553.292 224.196 554.11 223.599C554.929 223.003 555.852 222.705 556.88 222.705C557.642 222.705 558.346 222.866 558.994 223.19C559.647 223.514 560.216 223.963 560.699 224.537C561.181 225.111 561.556 225.773 561.824 226.523C562.096 227.267 562.233 228.062 562.233 228.909V229.455H551.733V228.909H561.687C561.687 227.858 561.471 226.906 561.039 226.054C560.608 225.196 560.028 224.514 559.301 224.009C558.574 223.503 557.767 223.25 556.88 223.25C555.983 223.25 555.17 223.517 554.443 224.051C553.716 224.585 553.133 225.312 552.696 226.233C552.258 227.153 552.028 228.193 552.005 229.352V229.42C552.005 230.562 552.204 231.614 552.602 232.574C553.005 233.528 553.591 234.293 554.358 234.866C555.125 235.44 556.056 235.727 557.153 235.727C557.96 235.727 558.636 235.585 559.181 235.301C559.733 235.017 560.173 234.69 560.502 234.321C560.838 233.952 561.085 233.636 561.244 233.375L561.687 233.682C561.494 234.011 561.204 234.378 560.818 234.781C560.431 235.185 559.937 235.534 559.335 235.83C558.733 236.125 558.005 236.273 557.153 236.273ZM573.936 225.67L573.391 225.807C573.215 225.239 572.968 224.767 572.65 224.392C572.337 224.011 571.953 223.727 571.499 223.54C571.044 223.347 570.516 223.25 569.914 223.25C568.868 223.25 568.022 223.517 567.374 224.051C566.726 224.58 566.402 225.278 566.402 226.148C566.402 226.835 566.621 227.412 567.059 227.878C567.502 228.344 568.169 228.687 569.061 228.909L571.107 229.42C572.067 229.659 572.794 230.062 573.289 230.631C573.789 231.199 574.039 231.886 574.039 232.693C574.039 233.403 573.851 234.028 573.476 234.568C573.107 235.108 572.596 235.528 571.942 235.83C571.289 236.125 570.533 236.273 569.675 236.273C568.51 236.273 567.559 235.989 566.82 235.42C566.081 234.852 565.601 234.045 565.38 233L565.925 232.864C566.118 233.79 566.53 234.5 567.161 234.994C567.797 235.483 568.635 235.727 569.675 235.727C570.811 235.727 571.732 235.449 572.436 234.892C573.141 234.335 573.493 233.602 573.493 232.693C573.493 232.017 573.283 231.446 572.863 230.98C572.442 230.514 571.811 230.176 570.971 229.966L568.925 229.455C567.919 229.205 567.155 228.795 566.632 228.227C566.115 227.659 565.857 226.966 565.857 226.148C565.857 225.46 566.027 224.861 566.368 224.349C566.715 223.832 567.192 223.429 567.8 223.139C568.414 222.849 569.118 222.705 569.914 222.705C570.925 222.705 571.769 222.955 572.445 223.455C573.121 223.949 573.618 224.687 573.936 225.67ZM578.647 236.102C578.477 236.102 578.332 236.043 578.213 235.923C578.093 235.804 578.034 235.659 578.034 235.489C578.034 235.318 578.093 235.173 578.213 235.054C578.332 234.935 578.477 234.875 578.647 234.875C578.818 234.875 578.963 234.935 579.082 235.054C579.201 235.173 579.261 235.318 579.261 235.489C579.261 235.602 579.233 235.707 579.176 235.804C579.125 235.895 579.051 235.966 578.954 236.017C578.863 236.074 578.761 236.102 578.647 236.102Z" fill="black"/>
</svg>
