<svg width="925" height="471" viewBox="0 0 925 471" fill="none" xmlns="http://www.w3.org/2000/svg">
<path d="M194.429 64.9091H201.319L207.952 77.4375H208.236L214.87 64.9091H221.759L211.148 83.7159V94H205.04V83.7159L194.429 64.9091ZM227.164 94H220.573L230.615 64.9091H238.542L248.57 94H241.979L234.692 71.5568H234.465L227.164 94ZM226.752 82.5653H242.32V87.3665H226.752V82.5653ZM252.071 94V64.9091H258.222V76.9119H270.708V64.9091H276.844V94H270.708V81.983H258.222V94H252.071ZM281.915 94V64.9091H288.066V76.9119H300.551V64.9091H306.688V94H300.551V81.983H288.066V94H281.915ZM311.759 94V64.9091H317.909V76.9119H330.395V64.9091H336.532V94H330.395V81.983H317.909V94H311.759ZM348.719 64.9091L348.165 85.2784H342.966L342.398 64.9091H348.719ZM345.566 94.3693C344.628 94.3693 343.823 94.0379 343.151 93.375C342.479 92.7027 342.147 91.8977 342.157 90.9602C342.147 90.0322 342.479 89.2367 343.151 88.5739C343.823 87.911 344.628 87.5795 345.566 87.5795C346.465 87.5795 347.256 87.911 347.938 88.5739C348.62 89.2367 348.965 90.0322 348.975 90.9602C348.965 91.5852 348.8 92.1581 348.478 92.679C348.165 93.1903 347.753 93.6023 347.242 93.9148C346.73 94.2178 346.172 94.3693 345.566 94.3693ZM369.98 64.9091V94H363.829V64.9091H369.98ZM392.224 94.3551C390.567 94.3551 389.066 93.929 387.721 93.0767C386.386 92.215 385.325 90.9508 384.539 89.2841C383.763 87.608 383.375 85.553 383.375 83.1193C383.375 80.6193 383.777 78.5407 384.582 76.8835C385.387 75.2169 386.457 73.9716 387.792 73.1477C389.137 72.3144 390.609 71.8977 392.21 71.8977C393.431 71.8977 394.449 72.1061 395.264 72.5227C396.088 72.9299 396.751 73.4413 397.252 74.0568C397.764 74.6629 398.152 75.2595 398.417 75.8466H398.602V64.9091H404.639V94H398.673V90.5057H398.417C398.133 91.1117 397.731 91.7131 397.21 92.3097C396.699 92.8968 396.031 93.3845 395.207 93.7727C394.393 94.161 393.398 94.3551 392.224 94.3551ZM394.142 89.5398C395.117 89.5398 395.941 89.2746 396.613 88.7443C397.295 88.2045 397.816 87.4517 398.176 86.4858C398.545 85.5199 398.73 84.3883 398.73 83.0909C398.73 81.7936 398.55 80.6667 398.19 79.7102C397.83 78.7538 397.309 78.0152 396.627 77.4943C395.946 76.9735 395.117 76.7131 394.142 76.7131C393.147 76.7131 392.309 76.983 391.627 77.5227C390.946 78.0625 390.43 78.8106 390.079 79.767C389.729 80.7235 389.554 81.8314 389.554 83.0909C389.554 84.3598 389.729 85.482 390.079 86.4574C390.439 87.4233 390.955 88.1809 391.627 88.7301C392.309 89.2699 393.147 89.5398 394.142 89.5398ZM409.614 94V72.1818H415.48V75.9886H415.708C416.105 74.6345 416.773 73.6117 417.711 72.9205C418.648 72.2197 419.728 71.8693 420.949 71.8693C421.252 71.8693 421.579 71.8883 421.929 71.9261C422.28 71.964 422.587 72.0161 422.853 72.0824V77.4517C422.569 77.3665 422.176 77.2907 421.674 77.2244C421.172 77.1581 420.712 77.125 420.296 77.125C419.406 77.125 418.61 77.3191 417.909 77.7074C417.218 78.0862 416.669 78.6165 416.262 79.2983C415.864 79.9801 415.665 80.7661 415.665 81.6562V94H409.614ZM434.824 94.4261C432.617 94.4261 430.709 93.9574 429.099 93.0199C427.499 92.0729 426.263 90.7566 425.392 89.071C424.52 87.3759 424.085 85.411 424.085 83.1761C424.085 80.9223 424.52 78.9527 425.392 77.267C426.263 75.572 427.499 74.2557 429.099 73.3182C430.709 72.3712 432.617 71.8977 434.824 71.8977C437.03 71.8977 438.933 72.3712 440.534 73.3182C442.144 74.2557 443.384 75.572 444.255 77.267C445.127 78.9527 445.562 80.9223 445.562 83.1761C445.562 85.411 445.127 87.3759 444.255 89.071C443.384 90.7566 442.144 92.0729 440.534 93.0199C438.933 93.9574 437.03 94.4261 434.824 94.4261ZM434.852 89.7386C435.856 89.7386 436.694 89.4545 437.366 88.8864C438.038 88.3087 438.545 87.5227 438.886 86.5284C439.236 85.5341 439.412 84.4025 439.412 83.1335C439.412 81.8646 439.236 80.733 438.886 79.7386C438.545 78.7443 438.038 77.9583 437.366 77.3807C436.694 76.803 435.856 76.5142 434.852 76.5142C433.839 76.5142 432.986 76.803 432.295 77.3807C431.613 77.9583 431.097 78.7443 430.747 79.7386C430.406 80.733 430.235 81.8646 430.235 83.1335C430.235 84.4025 430.406 85.5341 430.747 86.5284C431.097 87.5227 431.613 88.3087 432.295 88.8864C432.986 89.4545 433.839 89.7386 434.852 89.7386ZM449.497 102.182V72.1818H455.463V75.8466H455.733C455.998 75.2595 456.381 74.6629 456.883 74.0568C457.395 73.4413 458.057 72.9299 458.872 72.5227C459.696 72.1061 460.718 71.8977 461.94 71.8977C463.531 71.8977 464.999 72.3144 466.343 73.1477C467.688 73.9716 468.763 75.2169 469.568 76.8835C470.373 78.5407 470.775 80.6193 470.775 83.1193C470.775 85.553 470.382 87.608 469.596 89.2841C468.82 90.9508 467.759 92.215 466.414 93.0767C465.079 93.929 463.583 94.3551 461.926 94.3551C460.752 94.3551 459.752 94.161 458.929 93.7727C458.114 93.3845 457.447 92.8968 456.926 92.3097C456.405 91.7131 456.007 91.1117 455.733 90.5057H455.548V102.182H449.497ZM455.42 83.0909C455.42 84.3883 455.6 85.5199 455.96 86.4858C456.32 87.4517 456.841 88.2045 457.522 88.7443C458.204 89.2746 459.033 89.5398 460.008 89.5398C460.993 89.5398 461.826 89.2699 462.508 88.7301C463.19 88.1809 463.706 87.4233 464.056 86.4574C464.416 85.482 464.596 84.3598 464.596 83.0909C464.596 81.8314 464.421 80.7235 464.071 79.767C463.72 78.8106 463.204 78.0625 462.522 77.5227C461.841 76.983 461.002 76.7131 460.008 76.7131C459.023 76.7131 458.19 76.9735 457.508 77.4943C456.836 78.0152 456.32 78.7538 455.96 79.7102C455.6 80.6667 455.42 81.7936 455.42 83.0909ZM474.809 102.182V72.1818H480.775V75.8466H481.045C481.31 75.2595 481.694 74.6629 482.196 74.0568C482.707 73.4413 483.37 72.9299 484.184 72.5227C485.008 72.1061 486.031 71.8977 487.252 71.8977C488.843 71.8977 490.311 72.3144 491.656 73.1477C493.001 73.9716 494.075 75.2169 494.88 76.8835C495.685 78.5407 496.088 80.6193 496.088 83.1193C496.088 85.553 495.695 87.608 494.909 89.2841C494.132 90.9508 493.072 92.215 491.727 93.0767C490.392 93.929 488.895 94.3551 487.238 94.3551C486.064 94.3551 485.065 94.161 484.241 93.7727C483.427 93.3845 482.759 92.8968 482.238 92.3097C481.717 91.7131 481.32 91.1117 481.045 90.5057H480.86V102.182H474.809ZM480.733 83.0909C480.733 84.3883 480.913 85.5199 481.272 86.4858C481.632 87.4517 482.153 88.2045 482.835 88.7443C483.517 89.2746 484.345 89.5398 485.321 89.5398C486.306 89.5398 487.139 89.2699 487.821 88.7301C488.502 88.1809 489.019 87.4233 489.369 86.4574C489.729 85.482 489.909 84.3598 489.909 83.0909C489.909 81.8314 489.734 80.7235 489.383 79.767C489.033 78.8106 488.517 78.0625 487.835 77.5227C487.153 76.983 486.315 76.7131 485.321 76.7131C484.336 76.7131 483.502 76.9735 482.821 77.4943C482.148 78.0152 481.632 78.7538 481.272 79.7102C480.913 80.6667 480.733 81.7936 480.733 83.0909ZM510.065 94.4261C507.821 94.4261 505.889 93.9716 504.27 93.0625C502.66 92.1439 501.419 90.8466 500.548 89.1705C499.677 87.4848 499.241 85.4915 499.241 83.1903C499.241 80.946 499.677 78.9763 500.548 77.2812C501.419 75.5862 502.645 74.2652 504.227 73.3182C505.818 72.3712 507.683 71.8977 509.824 71.8977C511.263 71.8977 512.603 72.1297 513.843 72.5938C515.093 73.0483 516.182 73.7348 517.11 74.6534C518.048 75.572 518.777 76.7273 519.298 78.1193C519.819 79.5019 520.079 81.1212 520.079 82.9773V84.6392H501.656V80.8892H514.383C514.383 80.018 514.194 79.2462 513.815 78.5739C513.436 77.9015 512.911 77.3759 512.238 76.9972C511.575 76.6089 510.804 76.4148 509.923 76.4148C509.004 76.4148 508.19 76.6278 507.48 77.054C506.779 77.4706 506.23 78.0341 505.832 78.7443C505.434 79.4451 505.231 80.2263 505.221 81.0881V84.6534C505.221 85.733 505.42 86.6657 505.818 87.4517C506.225 88.2377 506.798 88.8438 507.537 89.2699C508.275 89.696 509.151 89.9091 510.164 89.9091C510.837 89.9091 511.452 89.8144 512.011 89.625C512.57 89.4356 513.048 89.1515 513.446 88.7727C513.843 88.3939 514.146 87.9299 514.355 87.3807L519.951 87.75C519.667 89.0947 519.085 90.2689 518.204 91.2727C517.333 92.267 516.206 93.0436 514.824 93.6023C513.45 94.1515 511.864 94.4261 510.065 94.4261ZM532.068 94.3551C530.411 94.3551 528.91 93.929 527.565 93.0767C526.23 92.215 525.169 90.9508 524.383 89.2841C523.607 87.608 523.218 85.553 523.218 83.1193C523.218 80.6193 523.621 78.5407 524.426 76.8835C525.231 75.2169 526.301 73.9716 527.636 73.1477C528.981 72.3144 530.453 71.8977 532.054 71.8977C533.275 71.8977 534.293 72.1061 535.108 72.5227C535.931 72.9299 536.594 73.4413 537.096 74.0568C537.608 74.6629 537.996 75.2595 538.261 75.8466H538.446V64.9091H544.483V94H538.517V90.5057H538.261C537.977 91.1117 537.574 91.7131 537.054 92.3097C536.542 92.8968 535.875 93.3845 535.051 93.7727C534.236 94.161 533.242 94.3551 532.068 94.3551ZM533.985 89.5398C534.961 89.5398 535.785 89.2746 536.457 88.7443C537.139 88.2045 537.66 87.4517 538.02 86.4858C538.389 85.5199 538.574 84.3883 538.574 83.0909C538.574 81.7936 538.394 80.6667 538.034 79.7102C537.674 78.7538 537.153 78.0152 536.471 77.4943C535.789 76.9735 534.961 76.7131 533.985 76.7131C532.991 76.7131 532.153 76.983 531.471 77.5227C530.789 78.0625 530.273 78.8106 529.923 79.767C529.573 80.7235 529.397 81.8314 529.397 83.0909C529.397 84.3598 529.573 85.482 529.923 86.4574C530.283 87.4233 530.799 88.1809 531.471 88.7301C532.153 89.2699 532.991 89.5398 533.985 89.5398ZM570.321 72.1818V76.7273H557.181V72.1818H570.321ZM560.164 66.9545H566.216V87.2955C566.216 87.8542 566.301 88.2898 566.471 88.6023C566.642 88.9053 566.878 89.1184 567.181 89.2415C567.494 89.3646 567.854 89.4261 568.261 89.4261C568.545 89.4261 568.829 89.4025 569.113 89.3551C569.397 89.2983 569.615 89.2557 569.767 89.2273L570.718 93.7301C570.415 93.8248 569.989 93.9337 569.44 94.0568C568.891 94.1894 568.223 94.2699 567.437 94.2983C565.979 94.3551 564.7 94.161 563.602 93.7159C562.513 93.2708 561.665 92.5795 561.059 91.642C560.453 90.7045 560.155 89.5208 560.164 88.0909V66.9545ZM580.782 81.3864V94H574.731V64.9091H580.612V76.0312H580.868C581.36 74.7434 582.155 73.7348 583.254 73.0057C584.352 72.267 585.73 71.8977 587.387 71.8977C588.903 71.8977 590.224 72.2292 591.35 72.892C592.487 73.5455 593.368 74.4877 593.993 75.7188C594.627 76.9403 594.94 78.4034 594.93 80.108V94H588.879V81.1875C588.888 79.8428 588.547 78.7964 587.856 78.0483C587.174 77.3002 586.218 76.9261 584.987 76.9261C584.163 76.9261 583.434 77.1013 582.799 77.4517C582.174 77.8021 581.682 78.3134 581.322 78.9858C580.972 79.6487 580.792 80.4489 580.782 81.3864ZM609.635 94.4261C607.391 94.4261 605.459 93.9716 603.84 93.0625C602.23 92.1439 600.989 90.8466 600.118 89.1705C599.247 87.4848 598.811 85.4915 598.811 83.1903C598.811 80.946 599.247 78.9763 600.118 77.2812C600.989 75.5862 602.216 74.2652 603.797 73.3182C605.388 72.3712 607.254 71.8977 609.394 71.8977C610.833 71.8977 612.173 72.1297 613.414 72.5938C614.664 73.0483 615.753 73.7348 616.681 74.6534C617.618 75.572 618.347 76.7273 618.868 78.1193C619.389 79.5019 619.65 81.1212 619.65 82.9773V84.6392H601.226V80.8892H613.953C613.953 80.018 613.764 79.2462 613.385 78.5739C613.007 77.9015 612.481 77.3759 611.809 76.9972C611.146 76.6089 610.374 76.4148 609.493 76.4148C608.575 76.4148 607.76 76.6278 607.05 77.054C606.349 77.4706 605.8 78.0341 605.402 78.7443C605.005 79.4451 604.801 80.2263 604.792 81.0881V84.6534C604.792 85.733 604.99 86.6657 605.388 87.4517C605.795 88.2377 606.368 88.8438 607.107 89.2699C607.846 89.696 608.721 89.9091 609.735 89.9091C610.407 89.9091 611.023 89.8144 611.581 89.625C612.14 89.4356 612.618 89.1515 613.016 88.7727C613.414 88.3939 613.717 87.9299 613.925 87.3807L619.522 87.75C619.238 89.0947 618.655 90.2689 617.775 91.2727C616.903 92.267 615.776 93.0436 614.394 93.6023C613.021 94.1515 611.435 94.4261 609.635 94.4261ZM644.461 72.1818V76.7273H631.322V72.1818H644.461ZM634.305 66.9545H640.356V87.2955C640.356 87.8542 640.441 88.2898 640.612 88.6023C640.782 88.9053 641.019 89.1184 641.322 89.2415C641.635 89.3646 641.994 89.4261 642.402 89.4261C642.686 89.4261 642.97 89.4025 643.254 89.3551C643.538 89.2983 643.756 89.2557 643.907 89.2273L644.859 93.7301C644.556 93.8248 644.13 93.9337 643.581 94.0568C643.031 94.1894 642.364 94.2699 641.578 94.2983C640.119 94.3551 638.841 94.161 637.743 93.7159C636.654 93.2708 635.806 92.5795 635.2 91.642C634.594 90.7045 634.296 89.5208 634.305 88.0909V66.9545ZM654.625 94.4119C653.233 94.4119 651.992 94.1705 650.903 93.6875C649.814 93.1951 648.952 92.4706 648.318 91.5142C647.693 90.5483 647.38 89.3456 647.38 87.9062C647.38 86.6941 647.603 85.6761 648.048 84.8523C648.493 84.0284 649.099 83.3655 649.866 82.8636C650.633 82.3617 651.504 81.983 652.48 81.7273C653.465 81.4716 654.497 81.2917 655.576 81.1875C656.845 81.0549 657.868 80.9318 658.645 80.8182C659.421 80.6951 659.984 80.5152 660.335 80.2784C660.685 80.0417 660.86 79.6913 660.86 79.2273V79.142C660.86 78.2424 660.576 77.5464 660.008 77.054C659.449 76.5616 658.654 76.3153 657.622 76.3153C656.533 76.3153 655.666 76.5568 655.022 77.0398C654.378 77.5133 653.952 78.1098 653.744 78.8295L648.147 78.375C648.431 77.0492 648.99 75.9034 649.824 74.9375C650.657 73.9621 651.732 73.214 653.048 72.6932C654.374 72.1629 655.908 71.8977 657.65 71.8977C658.862 71.8977 660.022 72.0398 661.13 72.3239C662.248 72.608 663.237 73.0483 664.099 73.6449C664.97 74.2415 665.657 75.0085 666.159 75.946C666.661 76.8741 666.912 77.9867 666.912 79.2841V94H661.173V90.9744H661.002C660.652 91.6562 660.183 92.2576 659.596 92.7784C659.009 93.2898 658.304 93.6922 657.48 93.9858C656.656 94.2699 655.704 94.4119 654.625 94.4119ZM656.358 90.2358C657.248 90.2358 658.034 90.0606 658.716 89.7102C659.397 89.3504 659.932 88.8674 660.321 88.2614C660.709 87.6553 660.903 86.9687 660.903 86.2017V83.8864C660.714 84.0095 660.453 84.1231 660.122 84.2273C659.8 84.322 659.435 84.4119 659.028 84.4972C658.621 84.5729 658.214 84.6439 657.806 84.7102C657.399 84.767 657.03 84.8191 656.699 84.8665C655.988 84.9706 655.368 85.1364 654.838 85.3636C654.307 85.5909 653.895 85.8987 653.602 86.2869C653.308 86.6657 653.162 87.1392 653.162 87.7074C653.162 88.5312 653.46 89.161 654.056 89.5966C654.663 90.0227 655.43 90.2358 656.358 90.2358ZM671.72 94V64.9091H677.771V75.8466H677.956C678.221 75.2595 678.604 74.6629 679.106 74.0568C679.618 73.4413 680.28 72.9299 681.095 72.5227C681.919 72.1061 682.941 71.8977 684.163 71.8977C685.754 71.8977 687.222 72.3144 688.566 73.1477C689.911 73.9716 690.986 75.2169 691.791 76.8835C692.596 78.5407 692.998 80.6193 692.998 83.1193C692.998 85.553 692.605 87.608 691.819 89.2841C691.043 90.9508 689.982 92.215 688.637 93.0767C687.302 93.929 685.806 94.3551 684.149 94.3551C682.975 94.3551 681.975 94.161 681.152 93.7727C680.337 93.3845 679.67 92.8968 679.149 92.3097C678.628 91.7131 678.23 91.1117 677.956 90.5057H677.686V94H671.72ZM677.643 83.0909C677.643 84.3883 677.823 85.5199 678.183 86.4858C678.543 87.4517 679.064 88.2045 679.745 88.7443C680.427 89.2746 681.256 89.5398 682.231 89.5398C683.216 89.5398 684.049 89.2699 684.731 88.7301C685.413 88.1809 685.929 87.4233 686.279 86.4574C686.639 85.482 686.819 84.3598 686.819 83.0909C686.819 81.8314 686.644 80.7235 686.294 79.767C685.943 78.8106 685.427 78.0625 684.745 77.5227C684.064 76.983 683.225 76.7131 682.231 76.7131C681.246 76.7131 680.413 76.9735 679.731 77.4943C679.059 78.0152 678.543 78.7538 678.183 79.7102C677.823 80.6667 677.643 81.7936 677.643 83.0909ZM703.087 64.9091V94H697.036V64.9091H703.087ZM717.877 94.4261C715.633 94.4261 713.701 93.9716 712.082 93.0625C710.472 92.1439 709.232 90.8466 708.36 89.1705C707.489 87.4848 707.054 85.4915 707.054 83.1903C707.054 80.946 707.489 78.9763 708.36 77.2812C709.232 75.5862 710.458 74.2652 712.039 73.3182C713.63 72.3712 715.496 71.8977 717.636 71.8977C719.075 71.8977 720.415 72.1297 721.656 72.5938C722.906 73.0483 723.995 73.7348 724.923 74.6534C725.86 75.572 726.59 76.7273 727.11 78.1193C727.631 79.5019 727.892 81.1212 727.892 82.9773V84.6392H709.468V80.8892H722.196C722.196 80.018 722.006 79.2462 721.627 78.5739C721.249 77.9015 720.723 77.3759 720.051 76.9972C719.388 76.6089 718.616 76.4148 717.735 76.4148C716.817 76.4148 716.002 76.6278 715.292 77.054C714.592 77.4706 714.042 78.0341 713.645 78.7443C713.247 79.4451 713.043 80.2263 713.034 81.0881V84.6534C713.034 85.733 713.233 86.6657 713.63 87.4517C714.038 88.2377 714.61 88.8438 715.349 89.2699C716.088 89.696 716.964 89.9091 717.977 89.9091C718.649 89.9091 719.265 89.8144 719.824 89.625C720.382 89.4356 720.86 89.1515 721.258 88.7727C721.656 88.3939 721.959 87.9299 722.167 87.3807L727.764 87.75C727.48 89.0947 726.897 90.2689 726.017 91.2727C725.145 92.267 724.019 93.0436 722.636 93.6023C721.263 94.1515 719.677 94.4261 717.877 94.4261ZM739.071 64.9091L738.517 85.2784H733.318L732.75 64.9091H739.071ZM735.917 94.3693C734.98 94.3693 734.175 94.0379 733.502 93.375C732.83 92.7027 732.499 91.8977 732.508 90.9602C732.499 90.0322 732.83 89.2367 733.502 88.5739C734.175 87.911 734.98 87.5795 735.917 87.5795C736.817 87.5795 737.608 87.911 738.289 88.5739C738.971 89.2367 739.317 90.0322 739.326 90.9602C739.317 91.5852 739.151 92.1581 738.829 92.679C738.517 93.1903 738.105 93.6023 737.593 93.9148C737.082 94.2178 736.523 94.3693 735.917 94.3693Z" fill="black"/>
<path d="M383.787 227.273C383.787 229.051 383.483 230.614 382.875 231.96C382.267 233.307 381.42 234.358 380.335 235.114C379.25 235.864 377.991 236.239 376.56 236.239C375.122 236.239 373.861 235.861 372.776 235.105C371.69 234.349 370.844 233.298 370.236 231.952C369.634 230.605 369.332 229.045 369.332 227.273C369.332 225.494 369.636 223.935 370.244 222.594C370.852 221.247 371.699 220.196 372.784 219.44C373.869 218.685 375.128 218.307 376.56 218.307C377.991 218.307 379.25 218.685 380.335 219.44C381.42 220.19 382.267 221.239 382.875 222.585C383.483 223.932 383.787 225.494 383.787 227.273ZM383.241 227.273C383.241 225.602 382.96 224.136 382.398 222.875C381.835 221.608 381.051 220.622 380.045 219.918C379.045 219.207 377.884 218.852 376.56 218.852C375.241 218.852 374.08 219.205 373.074 219.909C372.074 220.608 371.29 221.591 370.722 222.858C370.159 224.119 369.878 225.591 369.878 227.273C369.878 228.932 370.156 230.395 370.713 231.662C371.27 232.923 372.048 233.912 373.048 234.628C374.054 235.338 375.224 235.693 376.56 235.693C377.884 235.693 379.048 235.341 380.054 234.636C381.06 233.926 381.844 232.94 382.406 231.679C382.969 230.412 383.247 228.943 383.241 227.273ZM388.251 236V218.545H393.364C394.342 218.545 395.205 218.753 395.955 219.168C396.711 219.582 397.302 220.162 397.728 220.906C398.16 221.651 398.376 222.523 398.376 223.523C398.376 224.511 398.16 225.378 397.728 226.122C397.302 226.861 396.711 227.437 395.955 227.852C395.205 228.261 394.342 228.466 393.364 228.466H388.523V227.92H393.364C394.239 227.92 395.012 227.739 395.683 227.375C396.353 227.011 396.879 226.5 397.259 225.841C397.64 225.182 397.83 224.409 397.83 223.523C397.83 222.631 397.64 221.852 397.259 221.188C396.879 220.523 396.353 220.009 395.683 219.645C395.012 219.276 394.239 219.091 393.364 219.091H388.796V236H388.251ZM394.898 228.057L399.194 236H398.58L394.285 228.057H394.898ZM409.425 236V222.909H409.971V236H409.425ZM409.698 220.523C409.55 220.523 409.423 220.469 409.315 220.361C409.207 220.253 409.153 220.125 409.153 219.977C409.153 219.83 409.207 219.702 409.315 219.594C409.423 219.486 409.55 219.432 409.698 219.432C409.846 219.432 409.974 219.486 410.082 219.594C410.19 219.702 410.244 219.83 410.244 219.977C410.244 220.125 410.19 220.253 410.082 220.361C409.974 220.469 409.846 220.523 409.698 220.523ZM422.518 225.67L421.973 225.807C421.797 225.239 421.55 224.767 421.232 224.392C420.919 224.011 420.536 223.727 420.081 223.54C419.626 223.347 419.098 223.25 418.496 223.25C417.45 223.25 416.604 223.517 415.956 224.051C415.308 224.58 414.984 225.278 414.984 226.148C414.984 226.835 415.203 227.412 415.641 227.878C416.084 228.344 416.751 228.687 417.643 228.909L419.689 229.42C420.649 229.659 421.376 230.062 421.871 230.631C422.371 231.199 422.621 231.886 422.621 232.693C422.621 233.403 422.433 234.028 422.058 234.568C421.689 235.108 421.178 235.528 420.524 235.83C419.871 236.125 419.115 236.273 418.257 236.273C417.092 236.273 416.141 235.989 415.402 235.42C414.663 234.852 414.183 234.045 413.962 233L414.507 232.864C414.7 233.79 415.112 234.5 415.743 234.994C416.379 235.483 417.217 235.727 418.257 235.727C419.393 235.727 420.314 235.449 421.018 234.892C421.723 234.335 422.075 233.602 422.075 232.693C422.075 232.017 421.865 231.446 421.445 230.98C421.024 230.514 420.393 230.176 419.553 229.966L417.507 229.455C416.501 229.205 415.737 228.795 415.214 228.227C414.697 227.659 414.439 226.966 414.439 226.148C414.439 225.46 414.609 224.861 414.95 224.349C415.297 223.832 415.774 223.429 416.382 223.139C416.996 222.849 417.7 222.705 418.496 222.705C419.507 222.705 420.351 222.955 421.027 223.455C421.703 223.949 422.2 224.687 422.518 225.67ZM433.332 236V222.909H433.877V236H433.332ZM433.604 220.523C433.457 220.523 433.329 220.469 433.221 220.361C433.113 220.253 433.059 220.125 433.059 219.977C433.059 219.83 433.113 219.702 433.221 219.594C433.329 219.486 433.457 219.432 433.604 219.432C433.752 219.432 433.88 219.486 433.988 219.594C434.096 219.702 434.15 219.83 434.15 219.977C434.15 220.125 434.096 220.253 433.988 220.361C433.88 220.469 433.752 220.523 433.604 220.523ZM442.675 222.909V223.455H437.493V222.909H442.675ZM439.402 219.773H439.947V233.239C439.947 233.75 440.061 234.19 440.288 234.56C440.516 234.923 440.817 235.205 441.192 235.403C441.567 235.597 441.97 235.693 442.402 235.693C442.567 235.693 442.717 235.679 442.854 235.651C442.996 235.622 443.141 235.58 443.288 235.523L443.459 236.034C443.288 236.097 443.121 236.145 442.956 236.179C442.791 236.219 442.607 236.239 442.402 236.239C441.868 236.239 441.371 236.116 440.911 235.872C440.456 235.628 440.089 235.281 439.811 234.832C439.538 234.384 439.402 233.852 439.402 233.239V219.773ZM454.223 227.205V236H453.678V222.909H454.223V224.989H454.291C454.598 224.307 455.101 223.761 455.8 223.352C456.504 222.943 457.308 222.739 458.212 222.739C459.087 222.739 459.859 222.929 460.53 223.31C461.2 223.69 461.726 224.216 462.107 224.886C462.487 225.557 462.678 226.33 462.678 227.205V236H462.132V227.205C462.132 226.045 461.768 225.102 461.041 224.375C460.314 223.648 459.371 223.284 458.212 223.284C457.439 223.284 456.751 223.452 456.149 223.787C455.553 224.122 455.081 224.585 454.734 225.176C454.393 225.767 454.223 226.443 454.223 227.205ZM471.955 236.273C470.926 236.273 470.003 235.977 469.185 235.386C468.366 234.79 467.719 233.98 467.241 232.957C466.77 231.929 466.534 230.773 466.534 229.489C466.534 228.199 466.77 227.043 467.241 226.02C467.719 224.997 468.366 224.19 469.185 223.599C470.003 223.003 470.926 222.705 471.955 222.705C472.983 222.705 473.903 223.003 474.716 223.599C475.534 224.196 476.182 225.006 476.659 226.028C477.136 227.051 477.375 228.205 477.375 229.489C477.375 230.773 477.136 231.929 476.659 232.957C476.188 233.98 475.543 234.79 474.724 235.386C473.906 235.977 472.983 236.273 471.955 236.273ZM471.955 235.727C472.881 235.727 473.71 235.455 474.443 234.909C475.182 234.364 475.764 233.619 476.19 232.676C476.616 231.733 476.83 230.67 476.83 229.489C476.83 228.307 476.614 227.247 476.182 226.31C475.756 225.366 475.176 224.622 474.443 224.077C473.71 223.526 472.881 223.25 471.955 223.25C471.034 223.25 470.205 223.526 469.466 224.077C468.733 224.622 468.151 225.366 467.719 226.31C467.293 227.247 467.08 228.307 467.08 229.489C467.08 230.67 467.293 231.733 467.719 232.676C468.145 233.619 468.724 234.364 469.457 234.909C470.196 235.455 471.028 235.727 471.955 235.727ZM485.308 222.909V223.455H480.126V222.909H485.308ZM482.035 219.773H482.58V233.239C482.58 233.75 482.694 234.19 482.921 234.56C483.148 234.923 483.45 235.205 483.825 235.403C484.2 235.597 484.603 235.693 485.035 235.693C485.2 235.693 485.35 235.679 485.487 235.651C485.629 235.622 485.773 235.58 485.921 235.523L486.092 236.034C485.921 236.097 485.754 236.145 485.589 236.179C485.424 236.219 485.239 236.239 485.035 236.239C484.501 236.239 484.004 236.116 483.543 235.872C483.089 235.628 482.722 235.281 482.444 234.832C482.171 234.384 482.035 233.852 482.035 233.239V219.773ZM500.81 222.909V223.455H495.629V222.909H500.81ZM497.435 236V220.761C497.435 220.148 497.572 219.616 497.844 219.168C498.123 218.719 498.489 218.372 498.944 218.128C499.404 217.884 499.901 217.761 500.435 217.761C500.64 217.761 500.825 217.778 500.989 217.812C501.154 217.847 501.316 217.892 501.475 217.949L501.305 218.46C501.163 218.415 501.023 218.378 500.887 218.349C500.751 218.321 500.6 218.307 500.435 218.307C499.782 218.307 499.208 218.526 498.714 218.963C498.225 219.401 497.981 220 497.981 220.761L497.964 236H497.435ZM508.353 236.273C507.325 236.273 506.401 235.977 505.583 235.386C504.765 234.79 504.117 233.98 503.64 232.957C503.168 231.929 502.933 230.773 502.933 229.489C502.933 228.199 503.168 227.043 503.64 226.02C504.117 224.997 504.765 224.19 505.583 223.599C506.401 223.003 507.325 222.705 508.353 222.705C509.381 222.705 510.302 223.003 511.114 223.599C511.933 224.196 512.58 225.006 513.058 226.028C513.535 227.051 513.773 228.205 513.773 229.489C513.773 230.773 513.535 231.929 513.058 232.957C512.586 233.98 511.941 234.79 511.123 235.386C510.305 235.977 509.381 236.273 508.353 236.273ZM508.353 235.727C509.279 235.727 510.109 235.455 510.842 234.909C511.58 234.364 512.163 233.619 512.589 232.676C513.015 231.733 513.228 230.67 513.228 229.489C513.228 228.307 513.012 227.247 512.58 226.31C512.154 225.366 511.575 224.622 510.842 224.077C510.109 223.526 509.279 223.25 508.353 223.25C507.433 223.25 506.603 223.526 505.864 224.077C505.131 224.622 504.549 225.366 504.117 226.31C503.691 227.247 503.478 228.307 503.478 229.489C503.478 230.67 503.691 231.733 504.117 232.676C504.543 233.619 505.123 234.364 505.856 234.909C506.594 235.455 507.427 235.727 508.353 235.727ZM526.07 231.705V222.909H526.615V236H526.07V233.92H526.001C525.695 234.602 525.189 235.148 524.484 235.557C523.786 235.966 522.984 236.17 522.081 236.17C521.206 236.17 520.433 235.98 519.763 235.599C519.092 235.219 518.567 234.693 518.186 234.023C517.805 233.352 517.615 232.58 517.615 231.705V222.909H518.161V231.705C518.161 232.864 518.524 233.807 519.251 234.534C519.979 235.261 520.922 235.625 522.081 235.625C522.854 235.625 523.538 235.457 524.135 235.122C524.737 234.787 525.209 234.324 525.55 233.733C525.896 233.142 526.07 232.466 526.07 231.705ZM531.801 227.205V236H531.256V222.909H531.801V224.989H531.869C532.176 224.307 532.679 223.761 533.378 223.352C534.082 222.943 534.886 222.739 535.79 222.739C536.665 222.739 537.438 222.929 538.108 223.31C538.778 223.69 539.304 224.216 539.685 224.886C540.065 225.557 540.256 226.33 540.256 227.205V236H539.71V227.205C539.71 226.045 539.347 225.102 538.619 224.375C537.892 223.648 536.949 223.284 535.79 223.284C535.017 223.284 534.33 223.452 533.727 223.787C533.131 224.122 532.659 224.585 532.312 225.176C531.972 225.767 531.801 226.443 531.801 227.205ZM549.158 236.273C548.124 236.273 547.229 235.977 546.473 235.386C545.717 234.79 545.135 233.98 544.726 232.957C544.317 231.935 544.112 230.778 544.112 229.489C544.112 228.205 544.32 227.051 544.734 226.028C545.149 225.006 545.734 224.196 546.49 223.599C547.246 223.003 548.135 222.705 549.158 222.705C549.851 222.705 550.49 222.849 551.075 223.139C551.661 223.423 552.169 223.832 552.601 224.366C553.033 224.895 553.362 225.523 553.589 226.25H553.658V218.545H554.203V236H553.658V232.727H553.589C553.351 233.449 553.018 234.077 552.592 234.611C552.166 235.139 551.661 235.548 551.075 235.838C550.496 236.128 549.857 236.273 549.158 236.273ZM549.158 235.727C550.084 235.727 550.882 235.455 551.553 234.909C552.229 234.358 552.749 233.614 553.112 232.676C553.476 231.733 553.658 230.67 553.658 229.489C553.658 228.307 553.473 227.247 553.104 226.31C552.74 225.366 552.22 224.622 551.544 224.077C550.874 223.526 550.078 223.25 549.158 223.25C548.237 223.25 547.439 223.526 546.763 224.077C546.092 224.622 545.572 225.366 545.203 226.31C544.839 227.247 544.658 228.307 544.658 229.489C544.658 230.67 544.839 231.733 545.203 232.676C545.567 233.614 546.084 234.358 546.754 234.909C547.43 235.455 548.232 235.727 549.158 235.727ZM561.899 230.818V229.625C561.899 229.102 561.97 228.639 562.112 228.236C562.254 227.832 562.493 227.446 562.828 227.077C563.169 226.707 563.632 226.318 564.217 225.909C564.797 225.5 565.251 225.122 565.581 224.776C565.916 224.423 566.152 224.071 566.288 223.719C566.43 223.361 566.501 222.977 566.501 222.568C566.501 221.847 566.331 221.207 565.99 220.651C565.649 220.088 565.183 219.648 564.592 219.33C564.007 219.011 563.348 218.852 562.615 218.852C561.842 218.852 561.152 219.031 560.544 219.389C559.942 219.741 559.464 220.224 559.112 220.838C558.766 221.446 558.592 222.136 558.592 222.909H558.047C558.047 222.034 558.246 221.25 558.643 220.557C559.041 219.864 559.584 219.315 560.271 218.912C560.964 218.509 561.746 218.307 562.615 218.307C563.45 218.307 564.2 218.491 564.865 218.861C565.536 219.23 566.067 219.736 566.459 220.378C566.851 221.014 567.047 221.744 567.047 222.568C567.047 223.045 566.964 223.489 566.8 223.898C566.641 224.301 566.376 224.699 566.007 225.091C565.638 225.483 565.143 225.903 564.524 226.352C563.984 226.744 563.561 227.102 563.254 227.426C562.953 227.744 562.743 228.077 562.624 228.423C562.504 228.764 562.445 229.165 562.445 229.625V230.818H561.899ZM562.172 236.102C562.001 236.102 561.857 236.043 561.737 235.923C561.618 235.804 561.558 235.659 561.558 235.489C561.558 235.318 561.618 235.173 561.737 235.054C561.857 234.935 562.001 234.875 562.172 234.875C562.342 234.875 562.487 234.935 562.607 235.054C562.726 235.173 562.786 235.318 562.786 235.489C562.786 235.602 562.757 235.707 562.7 235.804C562.649 235.895 562.575 235.966 562.479 236.017C562.388 236.074 562.286 236.102 562.172 236.102Z" fill="black"/>
<rect x="654.334" y="423.841" width="291" height="27" transform="rotate(-41.2903 654.334 423.841)" fill="black"/>
<rect x="654.334" y="423.841" width="291" height="27" transform="rotate(-41.2903 654.334 423.841)" fill="black"/>
<rect x="622" y="387.024" width="21" height="76" transform="rotate(-41.2903 622 387.024)" fill="black"/>
<rect x="622" y="387.024" width="21" height="76" transform="rotate(-41.2903 622 387.024)" fill="black"/>
<rect x="824.872" y="208.857" width="21" height="76" transform="rotate(-41.2903 824.872 208.857)" fill="black"/>
<rect x="824.872" y="208.857" width="21" height="76" transform="rotate(-41.2903 824.872 208.857)" fill="black"/>
<rect x="38.2798" y="152.992" width="86" height="26" transform="rotate(-18.4429 38.2798 152.992)" fill="black"/>
<rect x="33.2021" y="27.1343" width="17" height="147" transform="rotate(-18.4429 33.2021 27.1343)" fill="black"/>
</svg>
