<svg width="215" height="214" viewBox="0 0 215 214" fill="none" xmlns="http://www.w3.org/2000/svg">
<rect width="214" height="214" rx="30" fill="#7E7E7E"/>
<path d="M33.324 92.168C33.324 93.2 33.372 94.208 33.468 95.192C33.588 96.152 33.768 97.508 34.008 99.26C34.464 102.212 34.692 104.564 34.692 106.316C34.692 106.676 34.62 106.892 34.476 106.964C34.332 107.036 34.164 107.072 33.972 107.072C33.78 107.072 33.648 107.072 33.576 107.072C33.24 107.072 32.976 107.036 32.784 106.964C32.592 106.868 32.436 106.652 32.316 106.316L31.56 96.524C31.488 95.54 31.392 93.56 31.272 90.584C30.24 91.784 29.22 92.696 28.212 93.32C27.204 93.92 26.172 94.22 25.116 94.22C23.604 94.22 22.092 93.152 20.58 91.016C20.652 91.376 20.688 91.856 20.688 92.456C20.688 93.056 20.688 93.404 20.688 93.5L20.652 105.272C20.652 105.512 20.52 105.704 20.256 105.848C20.016 105.968 19.764 106.028 19.5 106.028C19.164 106.028 18.924 105.908 18.78 105.668C18.66 105.404 18.564 105.056 18.492 104.624V99.584C18.492 98.816 18.516 97.952 18.564 96.992C18.612 96.032 18.648 95.36 18.672 94.976C18.792 93.296 18.852 91.772 18.852 90.404C18.852 89.996 18.78 89.612 18.636 89.252C18.492 88.868 18.276 88.448 17.988 87.992C17.7 87.536 17.484 87.14 17.34 86.804C17.22 86.468 17.16 86.108 17.16 85.724C17.16 85.268 17.388 85.04 17.844 85.04C18.564 85.04 19.152 85.304 19.608 85.832C20.064 86.336 20.556 87.104 21.084 88.136C21.54 88.976 21.936 89.636 22.272 90.116C22.608 90.596 23.04 91.016 23.568 91.376C24.096 91.712 24.732 91.88 25.476 91.88C26.556 91.928 27.444 91.724 28.14 91.268C28.836 90.788 29.364 90.212 29.724 89.54C30.084 88.868 30.432 88.052 30.768 87.092C31.056 86.3 31.308 85.748 31.524 85.436C31.74 85.1 32.004 84.968 32.316 85.04C33.036 84.992 33.396 85.652 33.396 87.02C33.396 88.172 33.384 89.024 33.36 89.576L33.324 92.168ZM42.8432 107C42.5312 107.12 42.2312 107.048 41.9432 106.784C41.6792 106.52 41.5352 106.148 41.5112 105.668C41.4152 104.972 41.3072 104.12 41.1872 103.112C41.0912 102.104 41.0192 101.36 40.9712 100.88C40.9232 100.4 40.8152 99.476 40.6472 98.108C40.5032 96.716 40.3472 95.516 40.1792 94.508C40.1312 94.172 39.9752 93.572 39.7112 92.708C39.0152 90.236 38.6672 88.448 38.6672 87.344C38.8352 87.104 39.0032 86.984 39.1712 86.984C39.7952 86.984 40.4432 88.232 41.1152 90.728C41.7872 93.224 42.3512 96.044 42.8072 99.188C43.2872 102.308 43.5272 104.444 43.5272 105.596C43.5272 105.644 43.5272 105.8 43.5272 106.064C43.5272 106.304 43.4672 106.508 43.3472 106.676C43.2512 106.844 43.0832 106.952 42.8432 107ZM58.5158 105.632C60.4838 105.632 62.0078 105.356 63.0878 104.804C64.1678 104.252 64.7078 103.448 64.7078 102.392C64.7078 101.456 64.3838 100.652 63.7358 99.98C63.0878 99.284 62.2838 98.696 61.3238 98.216C60.3638 97.736 59.0558 97.172 57.3998 96.524C57.2558 96.476 56.9078 96.344 56.3558 96.128C54.0998 95.216 52.3598 94.304 51.1358 93.392C49.9358 92.48 49.3358 91.304 49.3358 89.864C49.3358 88.256 49.9718 87.044 51.2438 86.228C52.5158 85.412 54.1478 85.004 56.1398 85.004C57.6038 85.004 58.9478 85.196 60.1718 85.58C61.4198 85.94 62.4038 86.444 63.1238 87.092C63.8678 87.74 64.2398 88.472 64.2398 89.288C63.9518 89.432 63.6758 89.504 63.4118 89.504C63.1238 89.504 62.8238 89.444 62.5118 89.324C62.2238 89.18 61.7918 88.952 61.2158 88.64C60.2798 88.136 59.4038 87.74 58.5878 87.452C57.7718 87.14 56.8118 86.984 55.7078 86.984C54.3158 86.984 53.1878 87.224 52.3238 87.704C51.4598 88.184 51.0278 88.856 51.0278 89.72C51.0278 90.392 51.3158 91.004 51.8918 91.556C52.4918 92.108 53.2358 92.6 54.1238 93.032C55.0358 93.44 56.2478 93.932 57.7598 94.508C59.6798 95.252 61.2638 95.948 62.5118 96.596C63.7598 97.244 64.8158 98.072 65.6798 99.08C66.5678 100.064 67.0118 101.24 67.0118 102.608C67.0118 104.216 66.2438 105.464 64.7078 106.352C63.1718 107.216 61.2638 107.648 58.9838 107.648C57.1838 107.648 55.4078 107.384 53.6558 106.856C51.9038 106.328 50.4038 105.548 49.1558 104.516C47.9078 103.46 47.1158 102.2 46.7798 100.736C46.7798 100.088 46.9598 99.536 47.3198 99.08C47.6798 98.6 48.1238 98.36 48.6518 98.36C48.6518 99.92 49.0838 101.252 49.9478 102.356C50.8358 103.436 52.0238 104.252 53.5118 104.804C55.0238 105.356 56.6918 105.632 58.5158 105.632ZM81.6135 105.632C83.5815 105.632 85.1055 105.356 86.1855 104.804C87.2655 104.252 87.8055 103.448 87.8055 102.392C87.8055 101.456 87.4815 100.652 86.8335 99.98C86.1855 99.284 85.3815 98.696 84.4215 98.216C83.4615 97.736 82.1535 97.172 80.4975 96.524C80.3535 96.476 80.0055 96.344 79.4535 96.128C77.1975 95.216 75.4575 94.304 74.2335 93.392C73.0335 92.48 72.4335 91.304 72.4335 89.864C72.4335 88.256 73.0695 87.044 74.3415 86.228C75.6135 85.412 77.2455 85.004 79.2375 85.004C80.7015 85.004 82.0455 85.196 83.2695 85.58C84.5175 85.94 85.5015 86.444 86.2215 87.092C86.9655 87.74 87.3375 88.472 87.3375 89.288C87.0495 89.432 86.7735 89.504 86.5095 89.504C86.2215 89.504 85.9215 89.444 85.6095 89.324C85.3215 89.18 84.8895 88.952 84.3135 88.64C83.3775 88.136 82.5015 87.74 81.6855 87.452C80.8695 87.14 79.9095 86.984 78.8055 86.984C77.4135 86.984 76.2855 87.224 75.4215 87.704C74.5575 88.184 74.1255 88.856 74.1255 89.72C74.1255 90.392 74.4135 91.004 74.9895 91.556C75.5895 92.108 76.3335 92.6 77.2215 93.032C78.1335 93.44 79.3455 93.932 80.8575 94.508C82.7775 95.252 84.3615 95.948 85.6095 96.596C86.8575 97.244 87.9135 98.072 88.7775 99.08C89.6655 100.064 90.1095 101.24 90.1095 102.608C90.1095 104.216 89.3415 105.464 87.8055 106.352C86.2695 107.216 84.3615 107.648 82.0815 107.648C80.2815 107.648 78.5055 107.384 76.7535 106.856C75.0015 106.328 73.5015 105.548 72.2535 104.516C71.0055 103.46 70.2135 102.2 69.8775 100.736C69.8775 100.088 70.0575 99.536 70.4175 99.08C70.7775 98.6 71.2215 98.36 71.7495 98.36C71.7495 99.92 72.1815 101.252 73.0455 102.356C73.9335 103.436 75.1215 104.252 76.6095 104.804C78.1215 105.356 79.7895 105.632 81.6135 105.632ZM97.5112 107C97.1992 107.12 96.8992 107.048 96.6112 106.784C96.3472 106.52 96.2032 106.148 96.1792 105.668C96.0832 104.972 95.9752 104.12 95.8552 103.112C95.7592 102.104 95.6872 101.36 95.6392 100.88C95.5912 100.4 95.4832 99.476 95.3152 98.108C95.1712 96.716 95.0152 95.516 94.8472 94.508C94.7992 94.172 94.6432 93.572 94.3792 92.708C93.6832 90.236 93.3352 88.448 93.3352 87.344C93.5032 87.104 93.6712 86.984 93.8392 86.984C94.4632 86.984 95.1112 88.232 95.7832 90.728C96.4552 93.224 97.0192 96.044 97.4752 99.188C97.9552 102.308 98.1952 104.444 98.1952 105.596C98.1952 105.644 98.1952 105.8 98.1952 106.064C98.1952 106.304 98.1352 106.508 98.0152 106.676C97.9192 106.844 97.7512 106.952 97.5112 107ZM117.36 89.072C118.056 89.072 118.776 89.756 119.52 91.124C120.264 92.492 120.888 94.064 121.392 95.84C121.896 97.592 122.148 98.9 122.148 99.764C122.148 101.084 121.86 102.272 121.284 103.328C120.732 104.36 119.94 105.176 118.908 105.776C117.876 106.352 116.7 106.64 115.38 106.64C113.556 106.64 111.972 106.148 110.628 105.164C109.308 104.18 108.252 103.052 107.46 101.78C106.668 100.484 105.852 98.936 105.012 97.136L104.508 96.056L104.58 104.768C104.58 105.296 104.484 105.812 104.292 106.316C104.124 106.796 103.824 107.036 103.392 107.036C102.96 107.036 102.648 106.796 102.456 106.316C102.264 105.812 102.168 105.32 102.168 104.84C102.168 103.304 102.288 101.096 102.528 98.216C102.768 95.336 102.888 93.188 102.888 91.772C102.888 91.436 102.864 91.088 102.816 90.728C102.768 90.368 102.732 90.116 102.708 89.972C102.588 89.324 102.528 88.748 102.528 88.244V88.1C102.6 88.1 102.816 88.052 103.176 87.956C103.56 87.836 103.788 87.776 103.86 87.776H104.22C105.132 91.88 106.476 95.672 108.252 99.152C110.052 102.608 112.512 104.336 115.632 104.336C117.096 104.336 118.2 103.904 118.944 103.04C119.712 102.152 120.096 100.964 120.096 99.476C120.096 98.204 119.892 97.04 119.484 95.984C119.076 94.904 118.464 93.584 117.648 92.024L116.676 90.116C116.604 89.996 116.568 89.876 116.568 89.756C116.568 89.564 116.64 89.408 116.784 89.288C116.928 89.144 117.12 89.072 117.36 89.072ZM104.58 104.768V104.696V104.768ZM143.705 109.484C142.889 109.484 142.337 109.052 142.049 108.188C141.785 107.348 141.653 106.424 141.653 105.416L141.761 104.372C140.585 105.116 139.193 105.704 137.585 106.136C136.001 106.568 134.333 106.784 132.581 106.784C131.309 106.784 130.181 106.496 129.197 105.92C128.213 105.32 127.445 104.516 126.893 103.508C126.365 102.476 126.101 101.312 126.101 100.016C126.101 98.048 126.869 96.188 128.405 94.436C129.941 92.66 131.825 91.22 134.057 90.116C136.313 88.988 138.401 88.352 140.321 88.208C141.281 88.112 142.097 88.328 142.769 88.856C143.441 89.36 143.777 90.068 143.777 90.98C143.273 90.98 142.673 90.848 141.977 90.584C141.881 90.56 141.629 90.488 141.221 90.368C140.813 90.248 140.393 90.188 139.961 90.188C138.257 90.188 136.445 90.68 134.525 91.664C132.629 92.648 131.033 93.956 129.737 95.588C128.465 97.196 127.829 98.888 127.829 100.664C127.829 101.504 128.081 102.236 128.585 102.86C129.113 103.46 129.761 103.928 130.529 104.264C131.321 104.576 132.113 104.732 132.905 104.732C134.801 104.732 136.361 104.66 137.585 104.516C138.809 104.348 139.865 103.928 140.753 103.256C141.641 102.56 142.085 101.504 142.085 100.088C142.085 99.416 141.941 98.948 141.653 98.684H135.245C134.909 98.684 134.585 98.516 134.273 98.18C133.985 97.844 133.841 97.508 133.841 97.172C133.841 96.572 134.021 96.272 134.381 96.272C134.669 96.272 135.125 96.392 135.749 96.632C136.325 96.896 136.817 97.028 137.225 97.028C137.753 97.028 138.569 96.956 139.673 96.812C139.865 96.788 140.213 96.752 140.717 96.704C141.221 96.656 141.677 96.632 142.085 96.632C142.493 96.632 142.889 96.812 143.273 97.172C143.681 97.508 143.873 97.892 143.849 98.324L143.633 106.64C143.801 106.976 144.089 107.264 144.497 107.504C144.641 107.576 144.761 107.66 144.857 107.756C144.953 107.876 145.013 107.996 145.037 108.116C145.157 108.38 145.037 108.668 144.677 108.98C144.317 109.316 143.993 109.484 143.705 109.484Z" fill="white"/>
<path d="M47.192 142.032H37.464V141.04L40.472 138.672V120.976L31.928 142.032H30.168L21.688 120.752V139.056L25.048 140.752L24.408 142.032H16.92V141.04L19.928 138.672V119.92L16.6 118.128L17.24 116.848H24.184L32.184 136.944L40.152 116.848H47.512V117.84L44.472 120.208V139.568L47.832 140.752L47.192 142.032ZM64.1895 139.568L67.5495 140.72L66.9095 142H57.1815V141.008L60.1895 138.64V132.944L51.9655 119.664L49.4375 118.128L50.0775 116.848H59.8055V117.84L56.8295 120.144L63.2295 130.544L69.8855 120.144L64.7655 118.128L65.4055 116.848H75.1335V117.84L72.5095 119.44L64.1895 132.464V139.568ZM91.189 136.336C91.189 135.675 90.9223 135.056 90.389 134.48C89.8557 133.904 89.1837 133.381 88.373 132.912C87.5837 132.421 86.5063 131.824 85.141 131.12C83.5197 130.267 82.2183 129.541 81.237 128.944C80.2557 128.325 79.413 127.6 78.709 126.768C78.0263 125.936 77.685 125.019 77.685 124.016C77.685 122.949 78.133 121.808 79.029 120.592C79.925 119.355 81.013 118.32 82.293 117.488C83.5943 116.635 84.789 116.208 85.877 116.208C87.1997 116.208 88.7357 116.368 90.485 116.688C92.2343 117.008 93.5143 117.349 94.325 117.712V123.92H93.109C92.0637 122.192 90.9117 120.848 89.653 119.888C88.4157 118.928 87.1143 118.448 85.749 118.448C84.533 118.448 83.5623 118.832 82.837 119.6C82.133 120.347 81.781 121.328 81.781 122.544C81.781 123.248 82.0477 123.909 82.581 124.528C83.1357 125.125 83.8077 125.659 84.597 126.128C85.4077 126.597 86.5277 127.205 87.957 127.952C89.5357 128.741 90.8157 129.445 91.797 130.064C92.7783 130.661 93.5997 131.365 94.261 132.176C94.9437 132.965 95.285 133.861 95.285 134.864C95.285 135.931 94.805 137.083 93.845 138.32C92.885 139.536 91.7117 140.571 90.325 141.424C88.9597 142.256 87.7117 142.672 86.581 142.672C85.1943 142.672 83.541 142.512 81.621 142.192C79.7223 141.872 78.357 141.531 77.525 141.168V134.96H78.741C79.829 136.688 81.0663 138.032 82.453 138.992C83.8397 139.952 85.269 140.432 86.741 140.432C87.6157 140.432 88.3943 140.24 89.077 139.856C89.7597 139.472 90.2823 138.971 90.645 138.352C91.0077 137.712 91.189 137.04 91.189 136.336ZM121.915 124.272L120.955 124.592L116.699 118.288H112.795V139.568L116.155 140.72L115.515 142H105.787V141.008L108.795 138.64V118.288H104.987L100.731 124.592L99.7713 124.272V116.272L101.499 116.848H120.187L121.915 116.272V124.272ZM145.276 142H126.076V141.008L129.084 138.64V119.248L125.756 118.128L126.396 116.848H144.956L146.684 116.272V123.632L145.724 123.952L141.916 118.288H133.084V128.432H138.108L140.444 124.336H141.436V134.064L140.156 134.704L138.14 129.872H133.084V140.56H141.788L146.044 134.256L147.004 134.576V142.576L145.276 142ZM175.499 142.064H169.547L162.507 130.704L161.003 129.616L161.483 128.656H163.275C164.725 128.656 165.867 128.293 166.699 127.568C167.552 126.821 167.979 125.808 167.979 124.528C167.979 122.843 167.509 121.445 166.571 120.336C165.632 119.205 164.267 118.64 162.475 118.64C161.28 118.64 160.181 118.992 159.179 119.696V139.632L162.539 140.784L161.899 142.064H152.171V141.072L155.179 138.704V119.248L151.851 118.16L152.491 116.88H156.203C158.144 116.88 160.053 116.816 161.931 116.688C163.296 116.603 164.309 116.56 164.971 116.56C166.4 116.56 167.669 116.848 168.779 117.424C169.909 118 170.773 118.779 171.371 119.76C171.989 120.741 172.299 121.819 172.299 122.992C172.299 124.059 171.968 125.083 171.307 126.064C170.645 127.024 169.771 127.867 168.683 128.592C167.616 129.296 166.485 129.829 165.291 130.192L167.371 130.896L172.331 138.896L176.139 140.784L175.499 142.064ZM190.846 139.568L194.206 140.72L193.566 142H183.838V141.008L186.846 138.64V132.944L178.622 119.664L176.094 118.128L176.734 116.848H186.462V117.84L183.486 120.144L189.886 130.544L196.542 120.144L191.422 118.128L192.062 116.848H201.79V117.84L199.166 119.44L190.846 132.464V139.568Z" fill="black"/>
</svg>
